<svg width="20" height="30" viewBox="0 0 20 30" fill="none" xmlns="http://www.w3.org/2000/svg">
<path d="M17 2H14.82C14.6137 1.41645 14.2319 0.910998 13.7271 0.552938C13.2222 0.194878 12.6189 0.00173951 12 0H8C7.38106 0.00173951 6.7778 0.194878 6.27293 0.552938C5.76807 0.910998 5.38631 1.41645 5.18 2H3C2.20435 2 1.44129 2.31607 0.87868 2.87868C0.316071 3.44129 0 4.20435 0 5V27C0 27.7956 0.316071 28.5587 0.87868 29.1213C1.44129 29.6839 2.20435 30 3 30H17C17.7956 30 18.5587 29.6839 19.1213 29.1213C19.6839 28.5587 20 27.7956 20 27V5C20 4.20435 19.6839 3.44129 19.1213 2.87868C18.5587 2.31607 17.7956 2 17 2ZM7 3C7 2.73478 7.10536 2.48043 7.29289 2.29289C7.48043 2.10536 7.73478 2 8 2H12C12.2652 2 12.5196 2.10536 12.7071 2.29289C12.8946 2.48043 13 2.73478 13 3V4H7V3ZM18 27C18 27.2652 17.8946 27.5196 17.7071 27.7071C17.5196 27.8946 17.2652 28 17 28H3C2.73478 28 2.48043 27.8946 2.29289 27.7071C2.10536 27.5196 2 27.2652 2 27V5C2 4.73478 2.10536 4.48043 2.29289 4.29289C2.48043 4.10536 2.73478 4 3 4H5V5C5 5.26522 5.10536 5.51957 5.29289 5.70711C5.48043 5.89464 5.73478 6 6 6H14C14.2652 6 14.5196 5.89464 14.7071 5.70711C14.8946 5.51957 15 5.26522 15 5V4H17C17.2652 4 17.5196 4.10536 17.7071 4.29289C17.8946 4.48043 18 4.73478 18 5V27Z" fill="#031521"/>
<path d="M16 24H9V26H16V24Z" fill="#031521"/>
<path d="M7 24H4V26H7V24Z" fill="#031521"/>
<path d="M12.73 14.66C13.224 14.0481 13.4955 13.2865 13.5 12.5C13.5 11.5717 13.1313 10.6815 12.4749 10.0251C11.8185 9.36875 10.9283 9 10 9C9.07174 9 8.1815 9.36875 7.52513 10.0251C6.86875 10.6815 6.5 11.5717 6.5 12.5C6.50447 13.2865 6.77597 14.0481 7.27 14.66C6.28612 15.1627 5.46015 15.9273 4.88315 16.8696C4.30616 17.8118 4.00054 18.8951 4 20V21C4 21.2652 4.10536 21.5196 4.29289 21.7071C4.48043 21.8946 4.73478 22 5 22H15C15.2652 22 15.5196 21.8946 15.7071 21.7071C15.8946 21.5196 16 21.2652 16 21V20C15.9995 18.8951 15.6938 17.8118 15.1168 16.8696C14.5399 15.9273 13.7139 15.1627 12.73 14.66ZM8.5 12.5C8.5 12.2033 8.58797 11.9133 8.7528 11.6666C8.91762 11.42 9.15189 11.2277 9.42597 11.1142C9.70006 11.0006 10.0017 10.9709 10.2926 11.0288C10.5836 11.0867 10.8509 11.2296 11.0607 11.4393C11.2704 11.6491 11.4133 11.9164 11.4712 12.2074C11.5291 12.4983 11.4994 12.7999 11.3858 13.074C11.2723 13.3481 11.08 13.5824 10.8334 13.7472C10.5867 13.912 10.2967 14 10 14C9.60218 14 9.22064 13.842 8.93934 13.5607C8.65804 13.2794 8.5 12.8978 8.5 12.5ZM6 20C6 18.9391 6.42143 17.9217 7.17157 17.1716C7.92172 16.4214 8.93913 16 10 16C11.0609 16 12.0783 16.4214 12.8284 17.1716C13.5786 17.9217 14 18.9391 14 20H6Z" fill="#031521"/>
</svg>
