<svg width="20" height="30" viewBox="0 0 20 30" fill="none" xmlns="http://www.w3.org/2000/svg">
<path d="M11.5 3H6.5V5H11.5V3Z" fill="#031521"/>
<path d="M18 7V1C18 0.734784 17.8946 0.48043 17.7071 0.292893C17.5196 0.105357 17.2652 0 17 0H1C0.734784 0 0.48043 0.105357 0.292893 0.292893C0.105357 0.48043 0 0.734784 0 1V29C0 29.2652 0.105357 29.5196 0.292893 29.7071C0.48043 29.8946 0.734784 30 1 30H17C17.2652 30 17.5196 29.8946 17.7071 29.7071C17.8946 29.5196 18 29.2652 18 29V22C18.5304 22 19.0391 21.7893 19.4142 21.4142C19.7893 21.0391 20 20.5304 20 20V9C20 8.46957 19.7893 7.96086 19.4142 7.58579C19.0391 7.21071 18.5304 7 18 7ZM2 28V26H16V28H2ZM16 24H2V2H16V7H7C6.46957 7 5.96086 7.21071 5.58579 7.58579C5.21071 7.96086 5 8.46957 5 9V20C5 20.5304 5.21071 21.0391 5.58579 21.4142C5.96086 21.7893 6.46957 22 7 22H16V24ZM18 20H7V9H18V20Z" fill="#031521"/>
<path d="M9.5 18.5001H15.5C15.7652 18.5001 16.0196 18.3947 16.2071 18.2072C16.3946 18.0196 16.5 17.7653 16.5 17.5001V13.2101C16.4989 13.0356 16.4522 12.8644 16.3645 12.7135C16.2768 12.5626 16.1511 12.4373 16 12.3501L13 10.6301C12.848 10.5423 12.6755 10.4961 12.5 10.4961C12.3245 10.4961 12.152 10.5423 12 10.6301L9 12.3501C8.84886 12.4373 8.72319 12.5626 8.63547 12.7135C8.54776 12.8644 8.50105 13.0356 8.5 13.2101V17.5001C8.5 17.7653 8.60536 18.0196 8.79289 18.2072C8.98043 18.3947 9.23478 18.5001 9.5 18.5001ZM10.5 13.7901L12.5 12.6501L14.5 13.7901V16.5001H10.5V13.7901Z" fill="#031521"/>
</svg>
