<svg width="15" height="17" viewBox="0 0 15 17" fill="none" xmlns="http://www.w3.org/2000/svg">
<path d="M0 15.4114C0 16.2916 0.714107 17.0057 1.59429 17.0057H13.2857C14.1659 17.0057 14.88 16.2916 14.88 15.4114V6.37714H0V15.4114ZM10.6286 8.90143C10.6286 8.68222 10.8079 8.50286 11.0271 8.50286H12.3557C12.5749 8.50286 12.7543 8.68222 12.7543 8.90143V10.23C12.7543 10.4492 12.5749 10.6286 12.3557 10.6286H11.0271C10.8079 10.6286 10.6286 10.4492 10.6286 10.23V8.90143ZM10.6286 13.1529C10.6286 12.9336 10.8079 12.7543 11.0271 12.7543H12.3557C12.5749 12.7543 12.7543 12.9336 12.7543 13.1529V14.4814C12.7543 14.7006 12.5749 14.88 12.3557 14.88H11.0271C10.8079 14.88 10.6286 14.7006 10.6286 14.4814V13.1529ZM6.37714 8.90143C6.37714 8.68222 6.5565 8.50286 6.77571 8.50286H8.10429C8.3235 8.50286 8.50286 8.68222 8.50286 8.90143V10.23C8.50286 10.4492 8.3235 10.6286 8.10429 10.6286H6.77571C6.5565 10.6286 6.37714 10.4492 6.37714 10.23V8.90143ZM6.37714 13.1529C6.37714 12.9336 6.5565 12.7543 6.77571 12.7543H8.10429C8.3235 12.7543 8.50286 12.9336 8.50286 13.1529V14.4814C8.50286 14.7006 8.3235 14.88 8.10429 14.88H6.77571C6.5565 14.88 6.37714 14.7006 6.37714 14.4814V13.1529ZM2.12571 8.90143C2.12571 8.68222 2.30507 8.50286 2.52429 8.50286H3.85286C4.07207 8.50286 4.25143 8.68222 4.25143 8.90143V10.23C4.25143 10.4492 4.07207 10.6286 3.85286 10.6286H2.52429C2.30507 10.6286 2.12571 10.4492 2.12571 10.23V8.90143ZM2.12571 13.1529C2.12571 12.9336 2.30507 12.7543 2.52429 12.7543H3.85286C4.07207 12.7543 4.25143 12.9336 4.25143 13.1529V14.4814C4.25143 14.7006 4.07207 14.88 3.85286 14.88H2.52429C2.30507 14.88 2.12571 14.7006 2.12571 14.4814V13.1529ZM13.2857 2.12571H11.6914V0.531429C11.6914 0.239143 11.4523 0 11.16 0H10.0971C9.80486 0 9.56571 0.239143 9.56571 0.531429V2.12571H5.31429V0.531429C5.31429 0.239143 5.07514 0 4.78286 0H3.72C3.42771 0 3.18857 0.239143 3.18857 0.531429V2.12571H1.59429C0.714107 2.12571 0 2.83982 0 3.72V5.31429H14.88V3.72C14.88 2.83982 14.1659 2.12571 13.2857 2.12571Z" fill="url(#paint0_linear_433_829)"/>
<defs>
<linearGradient id="paint0_linear_433_829" x1="7.44" y1="0" x2="7.44" y2="17.0057" gradientUnits="userSpaceOnUse">
<stop stop-color="#2589AC"/>
<stop offset="1" stop-color="#DB9B1E"/>
</linearGradient>
</defs>
</svg>
