<svg width="30" height="30" viewBox="0 0 30 30" fill="none" xmlns="http://www.w3.org/2000/svg">
<path d="M17.498 3H12.498V5H17.498V3Z" fill="#031521"/>
<path d="M29.7082 11.29L25.9982 7.59L24.5882 9L26.5882 11H23.9982V1C23.9982 0.734784 23.8928 0.48043 23.7053 0.292893C23.5178 0.105357 23.2634 0 22.9982 0H6.99819C6.73297 0 6.47862 0.105357 6.29108 0.292893C6.10354 0.48043 5.99819 0.734784 5.99819 1V11H2.99819V13H5.99819V17H0.998186C0.800761 17.001 0.608045 17.0604 0.444324 17.1707C0.280604 17.2811 0.153206 17.4374 0.0781863 17.62C0.0016069 17.8021 -0.0193158 18.0028 0.0180584 18.1968C0.0554325 18.3908 0.149429 18.5694 0.288186 18.71L3.99819 22.41L5.40819 21L3.40819 19H5.99819V29C5.99819 29.2652 6.10354 29.5196 6.29108 29.7071C6.47862 29.8946 6.73297 30 6.99819 30H22.9982C23.2634 30 23.5178 29.8946 23.7053 29.7071C23.8928 29.5196 23.9982 29.2652 23.9982 29V19H26.9982V17H23.9982V13H28.9982C29.1956 12.999 29.3883 12.9396 29.552 12.8293C29.7158 12.7189 29.8432 12.5626 29.9182 12.38C29.9948 12.1979 30.0157 11.9972 29.9783 11.8032C29.9409 11.6092 29.8469 11.4306 29.7082 11.29ZM7.99819 2H21.9982V11H7.99819V2ZM7.99819 28V26H21.9982V28H7.99819ZM21.9982 24H7.99819V19H21.9982V24ZM21.9982 17H7.99819V13H21.9982V17Z" fill="#031521"/>
</svg>
