<svg width="112" height="112" viewBox="0 0 112 112" fill="none" xmlns="http://www.w3.org/2000/svg">
<circle cx="56" cy="56" r="55" stroke="white" stroke-width="2"/>
<path d="M68.063 44.1499L44.2166 67.9963M68.063 44.1499L45.2534 44.1499M68.063 44.1499L68.063 66.9595" stroke="white" stroke-width="2"/>
<path d="M46.8548 92.703C47.4665 92.8456 48.0092 93.0769 48.4828 93.3969C48.947 93.7227 49.3275 94.1138 49.6243 94.5699C49.9134 95.0243 50.1071 95.5249 50.2053 96.0718C50.2959 96.617 50.2726 97.184 50.1354 97.7727C49.9981 98.3615 49.7684 98.8804 49.446 99.3292C49.1161 99.7764 48.7172 100.139 48.2493 100.417C47.7814 100.695 47.2682 100.873 46.7095 100.953C46.1414 101.038 45.5515 101.009 44.9398 100.867C44.3281 100.724 43.7922 100.498 43.3321 100.19C42.8643 99.8791 42.4962 99.4869 42.2277 99.0132L42.881 98.5971C43.139 99.012 43.4537 99.3393 43.8251 99.579C44.1965 99.8188 44.6154 99.993 45.0818 100.102C45.5789 100.218 46.0573 100.24 46.517 100.17C46.9674 100.106 47.3849 99.9573 47.7697 99.7245C48.1451 99.4976 48.468 99.202 48.7383 98.8378C48.9992 98.4794 49.1858 98.0593 49.2981 97.5776C49.4086 97.1035 49.427 96.6442 49.3532 96.1997C49.2718 95.7535 49.1138 95.3418 48.8792 94.9646C48.6353 94.5933 48.3264 94.2754 47.9527 94.011C47.5696 93.7524 47.1333 93.566 46.644 93.452C46.1852 93.345 45.7371 93.3131 45.2998 93.3563C44.8548 93.3977 44.4219 93.5427 44.0012 93.7913L43.6692 93.0367C44.1299 92.7894 44.6369 92.6375 45.1902 92.581C45.7418 92.5322 46.2966 92.5729 46.8548 92.703ZM44.4594 93.3297L43.7697 96.2889L42.9553 96.0991L43.6692 93.0367L44.4594 93.3297Z" fill="white"/>
<path d="M36.1695 93.6505L32.4015 91.4619L32.7741 90.8203L36.5422 93.0089L36.1695 93.6505ZM37.9987 90.3138L33.7112 87.8235L34.0898 87.1717L39.1309 90.0997L34.9902 97.2285L30.1019 94.3892L30.4805 93.7374L34.6152 96.139L37.9987 90.3138Z" fill="white"/>
<path d="M29.221 82.9612L23.8808 88.2135L25.9124 90.2791L25.375 90.8076L20.7007 86.0552L21.2381 85.5267L23.2697 87.5922L28.6099 82.3399L29.221 82.9612Z" fill="white"/>
<path d="M20.4831 69.3356C20.6951 69.9101 20.807 70.4965 20.8186 71.0948C20.8201 71.6885 20.7265 72.1833 20.5379 72.5793L19.7899 72.4914C19.9545 72.121 20.0446 71.6734 20.0601 71.1488C20.0656 70.6195 19.9746 70.1007 19.787 69.5925C19.6076 69.1064 19.4032 68.734 19.1739 68.4755C18.9345 68.2124 18.6858 68.0489 18.4279 67.9851C18.1673 67.9139 17.9118 67.9245 17.6613 68.017C17.3593 68.1284 17.1489 68.3065 17.03 68.5513C16.9084 68.7887 16.8477 69.0663 16.8479 69.3843C16.8407 69.705 16.8591 70.0497 16.9032 70.4184C16.9472 70.7871 16.9876 71.1572 17.0242 71.5287C17.0535 71.9028 17.0439 72.2621 16.9952 72.6065C16.9439 72.9435 16.8256 73.2466 16.6404 73.5158C16.4451 73.7803 16.1412 73.9887 15.7288 74.141C15.3457 74.2824 14.9592 74.3121 14.569 74.2301C14.1688 74.1435 13.7955 73.9256 13.449 73.5764C13.0952 73.23 12.7973 72.729 12.5553 72.0735C12.3949 71.6389 12.2984 71.1849 12.266 70.7114C12.2261 70.2407 12.2559 69.8113 12.3554 69.4231L13.1092 69.4587C13.0105 69.8717 12.979 70.2851 13.0145 70.6988C13.0473 71.1051 13.1276 71.4814 13.2554 71.8276C13.4267 72.2916 13.6307 72.6515 13.8674 72.9073C14.1041 73.1631 14.3564 73.3252 14.6244 73.3937C14.8823 73.4575 15.1438 73.4405 15.409 73.3426C15.711 73.2311 15.9228 73.0567 16.0444 72.8193C16.1633 72.5746 16.2226 72.2932 16.2224 71.9753C16.2195 71.6499 16.196 71.3029 16.152 70.9342C16.108 70.5655 16.0727 70.1977 16.0461 69.8309C16.0168 69.4567 16.0278 69.1011 16.0792 68.7642C16.1204 68.4225 16.235 68.1208 16.4229 67.8589C16.6081 67.5897 16.9033 67.3803 17.3084 67.2308C17.6841 67.0922 18.072 67.0661 18.4722 67.1528C18.8651 67.2421 19.2398 67.4637 19.5963 67.8175C19.9428 68.1666 20.2384 68.6727 20.4831 69.3356Z" fill="white"/>
<path d="M18.247 60.2263L10.7894 60.9259L11.06 63.8105L10.3096 63.8809L9.68696 57.2441L10.4374 57.1737L10.708 60.0582L18.1656 59.3586L18.247 60.2263Z" fill="white"/>
<path d="M17.8666 53.6404L10.4376 48.4464L10.5927 47.6008L19.3813 45.381L19.2156 46.2845L10.9803 48.2945L11.0441 47.947L18.0302 52.7484L17.8666 53.6404ZM15.9681 51.7835L15.3198 51.4012L16.1844 46.6865L16.9262 46.5591L15.9681 51.7835Z" fill="white"/>
<path d="M20.8725 41.505L13.5547 37.7085L14.9757 34.9695C15.2975 34.3493 15.6751 33.8685 16.1086 33.5273C16.5352 33.1825 16.9981 32.9893 17.4974 32.9476C17.9933 32.8953 18.5061 33.0065 19.0358 33.2813C19.5515 33.5489 19.9343 33.9023 20.1841 34.3414C20.4305 34.77 20.5391 35.2598 20.5098 35.8107C20.4735 36.358 20.2945 36.9417 19.9727 37.562L18.7741 39.8724L18.5976 39.343L21.2739 40.7314L20.8725 41.505ZM23.465 36.508L19.8334 37.0121L20.2673 36.1758L23.9043 35.6612L23.465 36.508ZM18.6604 39.3755L18.1155 39.5307L19.3033 37.2412C19.6829 36.5094 19.8101 35.8722 19.6847 35.3296C19.563 34.7799 19.2129 34.355 18.6344 34.0549C18.049 33.7512 17.4966 33.7079 16.9771 33.9248C16.4613 34.1349 16.0135 34.6058 15.6339 35.3376L14.4461 37.627L14.2592 37.0922L18.6604 39.3755Z" fill="white"/>
<path d="M27.8531 30.801L22.3903 25.6762L20.4081 27.7891L19.8584 27.2734L24.4191 22.412L24.9688 22.9277L22.9866 25.0406L28.4493 30.1654L27.8531 30.801Z" fill="white"/>
<path d="M31.9679 21.1948L35.6832 18.9178L36.0709 19.5504L32.3556 21.8274L31.9679 21.1948ZM34.0359 24.389L38.2634 21.7981L38.6572 22.4408L33.6867 25.487L29.3789 18.458L34.1988 15.5041L34.5927 16.1467L30.5158 18.6453L34.0359 24.389Z" fill="white"/>
<path d="M43.0568 20.5121L41.0557 12.5146L44.3118 11.6999C45.1648 11.4864 45.9542 11.471 46.6797 11.6537C47.411 11.8268 48.0309 12.1694 48.5394 12.6816C49.048 13.1937 49.4004 13.842 49.5967 14.6266C49.793 15.4111 49.7875 16.149 49.5801 16.8403C49.3726 17.5316 48.9881 18.1296 48.4265 18.6343C47.8705 19.1295 47.166 19.4839 46.313 19.6973L43.0568 20.5121ZM43.7193 19.5694L46.0843 18.9776C46.7926 18.8003 47.3715 18.5098 47.8208 18.106C48.2758 17.6927 48.5871 17.2061 48.7545 16.6462C48.9201 16.0787 48.9228 15.475 48.7627 14.8352C48.6007 14.1878 48.314 13.6566 47.9026 13.2416C47.4912 12.8265 46.9884 12.5477 46.3942 12.405C45.8058 12.2528 45.1574 12.2653 44.449 12.4425L42.0841 13.0343L43.7193 19.5694Z" fill="white"/>
<path d="M64.8403 19.7135C64.2299 19.5656 63.6893 19.3296 63.2185 19.0054C62.7571 18.6755 62.3801 18.2812 62.0873 17.8224C61.8022 17.3656 61.6129 16.8632 61.5195 16.3155C61.4336 15.7696 61.4619 15.2028 61.6043 14.6153C61.7467 14.0277 61.981 13.5109 62.3072 13.0648C62.6411 12.6206 63.0432 12.2616 63.5135 11.9878C63.9837 11.714 64.4986 11.5399 65.0579 11.4654C65.6267 11.3851 66.2163 11.4189 66.8268 11.5669C67.4372 11.7148 67.9711 11.9452 68.4285 12.258C68.8935 12.5727 69.2582 12.968 69.5225 13.4441L68.8657 13.8545C68.6113 13.4373 68.2994 13.1073 67.9302 12.8643C67.5609 12.6213 67.1435 12.4434 66.678 12.3306C66.182 12.2104 65.7039 12.1834 65.2435 12.2496C64.7926 12.3099 64.3738 12.4548 63.9869 12.6842C63.6096 12.9079 63.2842 13.2006 63.0107 13.5625C62.7466 13.9186 62.5564 14.337 62.4398 14.8178C62.3252 15.2908 62.3028 15.7499 62.3727 16.1951C62.4502 16.642 62.6045 17.0551 62.8358 17.4343C63.0765 17.8077 63.3826 18.1283 63.7539 18.396C64.1348 18.6579 64.5694 18.8481 65.0577 18.9664C65.5156 19.0774 65.9634 19.1132 66.4011 19.0739C66.8464 19.0364 67.2805 18.8952 67.7034 18.6503L68.0288 19.4077C67.5659 19.651 67.0576 19.7985 66.5038 19.8501C65.9518 19.8941 65.3974 19.8485 64.8403 19.7135ZM67.2411 19.1078L67.9568 16.1548L68.7694 16.3517L68.0288 19.4077L67.2411 19.1078Z" fill="white"/>
<path d="M75.5326 18.8595L79.2813 21.081L78.9031 21.7193L75.1543 19.4978L75.5326 18.8595ZM73.6743 22.1801L77.9398 24.7078L77.5555 25.3563L72.5403 22.3842L76.7432 15.292L81.6064 18.174L81.2221 18.8224L77.1086 16.3847L73.6743 22.1801Z" fill="white"/>
<path d="M82.3872 29.6093L87.7732 24.4039L85.7598 22.3207L86.3018 21.7969L90.9342 26.59L90.3922 27.1139L88.3788 25.0306L82.9929 30.236L82.3872 29.6093Z" fill="white"/>
<path d="M91.0057 43.3111C90.7987 42.7348 90.692 42.1474 90.6856 41.549C90.6893 40.9554 90.7871 40.4614 90.9792 40.067L91.7264 40.1615C91.5586 40.5305 91.4646 40.9772 91.4445 41.5017C91.4343 42.0309 91.5208 42.5505 91.704 43.0603C91.8791 43.548 92.0802 43.9221 92.3073 44.1826C92.5444 44.4478 92.7916 44.6135 93.0489 44.6796C93.3089 44.753 93.5645 44.7447 93.8157 44.6544C94.1187 44.5456 94.3307 44.3693 94.4517 44.1256C94.5754 43.8893 94.6386 43.6122 94.6412 43.2943C94.6511 42.9737 94.6357 42.6288 94.5949 42.2597C94.5541 41.8906 94.517 41.5202 94.4836 41.1484C94.4575 40.774 94.4704 40.4148 94.522 40.0709C94.5763 39.7344 94.6973 39.4323 94.8848 39.1648C95.0824 38.9019 95.3881 38.6962 95.8019 38.5475C96.1861 38.4095 96.5729 38.3832 96.9623 38.4686C97.3618 38.5587 97.7332 38.7799 98.0766 39.132C98.4274 39.4816 98.7209 39.9852 98.9571 40.6428C99.1137 41.0788 99.2062 41.5336 99.2345 42.0073C99.2702 42.4783 99.2367 42.9075 99.1338 43.2948L98.3804 43.2526C98.4826 42.8405 98.5178 42.4274 98.4859 42.0134C98.4566 41.6068 98.3796 41.2298 98.2549 40.8825C98.0877 40.417 97.8868 40.0553 97.6524 39.7975C97.418 39.5396 97.1671 39.3753 96.8997 39.3045C96.6424 39.2384 96.3807 39.2532 96.1147 39.3487C95.8117 39.4575 95.5984 39.6301 95.4747 39.8664C95.3537 40.1101 95.2919 40.3909 95.2893 40.7089C95.2893 41.0342 95.3098 41.3814 95.3506 41.7505C95.3914 42.1196 95.4235 42.4877 95.4468 42.8547C95.4729 43.2291 95.4587 43.5846 95.4044 43.9211C95.3601 44.2624 95.2429 44.5631 95.0527 44.8233C94.8652 45.0909 94.5682 45.2977 94.1618 45.4436C93.7849 45.579 93.3968 45.6016 92.9973 45.5115C92.6053 45.4187 92.2325 45.1939 91.8791 44.837C91.5357 44.4848 91.2445 43.9762 91.0057 43.3111Z" fill="white"/>
<path d="M93.1627 52.4394L100.626 51.8051L100.381 48.9183L101.132 48.8545L101.696 55.4964L100.945 55.5603L100.7 52.6735L93.2365 53.3078L93.1627 52.4394Z" fill="white"/>
<path d="M93.4846 59.0284L100.868 64.2872L100.705 65.1315L91.8976 67.2742L92.0713 66.3722L100.324 64.4344L100.257 64.7813L93.3132 59.9189L93.4846 59.0284ZM95.3668 60.9018L96.0117 61.2898L95.1059 65.9967L94.363 66.1176L95.3668 60.9018Z" fill="white"/>
<path d="M90.3719 71.1371L97.6562 74.9976L96.2113 77.724C95.8841 78.3414 95.5023 78.8188 95.0658 79.1562C94.6362 79.4972 94.1716 79.6864 93.672 79.7238C93.1756 79.7717 92.6638 79.656 92.1366 79.3766C91.6232 79.1045 91.2436 78.7478 90.9976 78.3064C90.7549 77.8757 90.6507 77.385 90.6848 76.8344C90.7258 76.2875 90.91 75.7053 91.2372 75.0878L92.456 72.7881L92.6278 73.319L89.9638 71.9072L90.3719 71.1371ZM87.7358 76.1113L91.3717 75.6389L90.9305 76.4714L87.2891 76.9542L87.7358 76.1113ZM92.5654 73.2859L93.1116 73.1355L91.9038 75.4145C91.5178 76.1429 91.385 76.779 91.5056 77.3227C91.6225 77.8734 91.9689 78.3013 92.5447 78.6065C93.1274 78.9153 93.6795 78.9635 94.2008 78.7511C94.7185 78.5456 95.1703 78.0786 95.5564 77.3502L96.7641 75.0713L96.9464 75.6077L92.5654 73.2859Z" fill="white"/>
<path d="M83.2983 81.7796L88.7159 86.952L90.7165 84.8565L91.2617 85.377L86.6586 90.1983L86.1134 89.6778L88.1141 87.5823L82.6964 82.4099L83.2983 81.7796Z" fill="white"/>
<path d="M79.1002 91.3495L75.365 93.5939L74.9829 92.9579L78.718 90.7135L79.1002 91.3495ZM77.0601 88.1374L72.8102 90.6911L72.4219 90.045L77.4189 87.0424L81.665 94.1089L76.8195 97.0205L76.4313 96.3744L80.5298 93.9117L77.0601 88.1374Z" fill="white"/>
<path d="M68.0055 91.935L69.9365 99.9497L66.6734 100.736C65.8185 100.942 65.0291 100.95 64.3051 100.761C63.5754 100.582 62.9585 100.234 62.4545 99.7173C61.9504 99.2007 61.6037 98.5493 61.4143 97.7631C61.2249 96.9769 61.2369 96.2391 61.4503 95.5496C61.6638 94.8602 62.0536 94.2655 62.6196 93.7657C63.1799 93.2754 63.8874 92.9272 64.7423 92.7212L68.0055 91.935ZM67.3347 92.8719L64.9647 93.443C64.2548 93.614 63.6735 93.8995 63.2206 94.2993C62.762 94.7086 62.4465 95.1925 62.2741 95.7509C62.1036 96.3169 62.0956 96.9205 62.2501 97.5617C62.4064 98.2105 62.6885 98.7442 63.0962 99.1629C63.504 99.5815 64.0043 99.8647 64.5972 100.013C65.1843 100.17 65.8328 100.163 66.5426 99.9921L68.9127 99.4211L67.3347 92.8719Z" fill="white"/>
</svg>
