<svg width="30" height="24" viewBox="0 0 30 24" fill="none" xmlns="http://www.w3.org/2000/svg">
<g clip-path="url(#clip0_566_285)">
<path d="M25.4553 11.2931C25.6896 11.4807 25.8213 11.735 25.8213 12.0001C25.8213 12.2653 25.6896 12.5196 25.4553 12.7071L18.3841 18.3641C18.2687 18.4597 18.1308 18.5358 17.9783 18.5882C17.8258 18.6407 17.6618 18.6682 17.4958 18.6694C17.3298 18.6705 17.1652 18.6452 17.0116 18.595C16.858 18.5447 16.7184 18.4704 16.6011 18.3765C16.4837 18.2826 16.3909 18.171 16.328 18.0481C16.2652 17.9252 16.2336 17.7935 16.235 17.6607C16.2364 17.528 16.2709 17.3967 16.3364 17.2747C16.4019 17.1527 16.4972 17.0424 16.6166 16.9501L21.5541 13.0001H5.00031C4.66879 13.0001 4.35085 12.8948 4.11643 12.7073C3.88201 12.5197 3.75031 12.2654 3.75031 12.0001C3.75031 11.7349 3.88201 11.4806 4.11643 11.293C4.35085 11.1055 4.66879 11.0001 5.00031 11.0001H21.5541L16.6166 7.05014C16.3889 6.86154 16.2629 6.60894 16.2657 6.34674C16.2686 6.08455 16.4 5.83373 16.6318 5.64833C16.8635 5.46292 17.1771 5.35775 17.5048 5.35547C17.8326 5.35319 18.1483 5.45399 18.3841 5.63614L25.4553 11.2931Z" fill="white"/>
</g>
<defs>
<clipPath id="clip0_566_285">
<rect width="24" height="30" fill="white" transform="matrix(0 -1 -1 0 30 24)"/>
</clipPath>
</defs>
</svg>
