<svg width="70" height="70" viewBox="0 0 70 70" fill="none" xmlns="http://www.w3.org/2000/svg">
<path d="M13.9997 23.3333H18.6663V20.1367C20.0077 19.9206 21.2196 19.2101 22.0633 18.1452C22.907 17.0802 23.3213 15.7379 23.2247 14.3827C23.1281 13.0274 22.5276 11.7575 21.5414 10.8229C20.5552 9.88838 19.2548 9.35696 17.8963 9.33333H14.7697C14.5855 9.3014 14.4186 9.20547 14.2982 9.06247C14.1779 8.91947 14.1119 8.73857 14.1119 8.55167C14.1119 8.36477 14.1779 8.18387 14.2982 8.04086C14.4186 7.89786 14.5855 7.80194 14.7697 7.77H23.333V3.10333H18.6663V0H13.9997V3.19667C12.6583 3.41272 11.4464 4.1232 10.6027 5.18818C9.75905 6.25315 9.3447 7.59544 9.44129 8.95067C9.53789 10.3059 10.1384 11.5759 11.1246 12.5104C12.1108 13.445 13.4112 13.9764 14.7697 14H17.8963C18.0805 14.0319 18.2475 14.1279 18.3678 14.2709C18.4881 14.4139 18.5541 14.5948 18.5541 14.7817C18.5541 14.9686 18.4881 15.1495 18.3678 15.2925C18.2475 15.4355 18.0805 15.5314 17.8963 15.5633H9.33301V20.23H13.9997V23.3333Z" fill="white"/>
<path d="M4.66667 0H0V67.6667C0 68.2855 0.245833 68.879 0.683417 69.3166C1.121 69.7542 1.71449 70 2.33333 70H70V65.3333H4.66667V0Z" fill="white"/>
<path d="M11.6663 60.6667H20.9997C21.6185 60.6667 22.212 60.4208 22.6496 59.9832C23.0872 59.5457 23.333 58.9522 23.333 58.3333V44.3333C23.333 43.7145 23.0872 43.121 22.6496 42.6834C22.212 42.2458 21.6185 42 20.9997 42H11.6663C11.0475 42 10.454 42.2458 10.0164 42.6834C9.57884 43.121 9.33301 43.7145 9.33301 44.3333V58.3333C9.33301 58.9522 9.57884 59.5457 10.0164 59.9832C10.454 60.4208 11.0475 60.6667 11.6663 60.6667ZM13.9997 46.6667H18.6663V56H13.9997V46.6667Z" fill="white"/>
<path d="M35.0003 60.6667H44.3337C44.9525 60.6667 45.546 60.4208 45.9836 59.9833C46.4212 59.5457 46.667 58.9522 46.667 58.3333V30.3333C46.667 29.7145 46.4212 29.121 45.9836 28.6834C45.546 28.2458 44.9525 28 44.3337 28H35.0003C34.3815 28 33.788 28.2458 33.3504 28.6834C32.9128 29.121 32.667 29.7145 32.667 30.3333V58.3333C32.667 58.9522 32.9128 59.5457 33.3504 59.9833C33.788 60.4208 34.3815 60.6667 35.0003 60.6667ZM37.3337 32.6667H42.0003V56H37.3337V32.6667Z" fill="white"/>
<path d="M67.6667 14H58.3333C57.7145 14 57.121 14.2458 56.6834 14.6834C56.2458 15.121 56 15.7145 56 16.3333V58.3333C56 58.9522 56.2458 59.5457 56.6834 59.9833C57.121 60.4208 57.7145 60.6667 58.3333 60.6667H67.6667C68.2855 60.6667 68.879 60.4208 69.3166 59.9833C69.7542 59.5457 70 58.9522 70 58.3333V16.3333C70 15.7145 69.7542 15.121 69.3166 14.6834C68.879 14.2458 68.2855 14 67.6667 14ZM65.3333 56H60.6667V18.6667H65.3333V56Z" fill="white"/>
</svg>
