<svg width="47" height="70" viewBox="0 0 47 70" fill="none" xmlns="http://www.w3.org/2000/svg">
<path d="M22.4933 53.5033C23.0339 53.7119 23.6328 53.7119 24.1733 53.5033C25.0833 53.1533 46.6667 44.5433 46.6667 23.3333C46.6667 17.1449 44.2083 11.21 39.8325 6.83418C35.4566 2.45833 29.5217 0 23.3333 0C17.1449 0 11.21 2.45833 6.83418 6.83418C2.45833 11.21 0 17.1449 0 23.3333C0 44.5433 21.5833 53.1533 22.4933 53.5033ZM23.3333 4.66667C28.284 4.66667 33.032 6.63333 36.5327 10.134C40.0333 13.6347 42 18.3826 42 23.3333C42 39.13 27.09 47.04 23.3333 48.79C19.5767 47.04 4.66667 39.13 4.66667 23.3333C4.66667 18.3826 6.63333 13.6347 10.134 10.134C13.6347 6.63333 18.3826 4.66667 23.3333 4.66667Z" fill="white"/>
<path d="M20.9998 37.3333H25.6665V33.4133C26.4815 33.3872 27.2835 33.2009 28.0265 32.8649C28.7696 32.5289 29.4392 32.0499 29.9971 31.4551C30.5551 30.8604 30.9904 30.1615 31.2782 29.3985C31.5661 28.6355 31.7008 27.8233 31.6748 27.0083C31.6487 26.1932 31.4624 25.3912 31.1264 24.6482C30.7905 23.9051 30.3114 23.2355 29.7167 22.6776C29.1219 22.1196 28.4231 21.6843 27.6601 21.3965C26.8971 21.1086 26.0849 20.9739 25.2698 20.9999H21.3965C21.1767 21.0269 20.9537 21.0069 20.7423 20.9413C20.5309 20.8757 20.3358 20.7659 20.17 20.6192C20.0041 20.4725 19.8714 20.2922 19.7804 20.0904C19.6895 19.8885 19.6425 19.6696 19.6425 19.4483C19.6425 19.2269 19.6895 19.008 19.7804 18.8061C19.8714 18.6043 20.0041 18.424 20.17 18.2773C20.3358 18.1307 20.5309 18.0209 20.7423 17.9552C20.9537 17.8896 21.1767 17.8696 21.3965 17.8966H31.4998V13.2299H25.6665V9.33325H20.9998V13.2533C19.3537 13.3059 17.7959 14.0102 16.6691 15.2114C15.5423 16.4126 14.9389 18.0121 14.9915 19.6583C15.0441 21.3044 15.7484 22.8622 16.9496 23.9889C18.1508 25.1157 19.7503 25.7192 21.3965 25.6666H25.2698C25.4895 25.6396 25.7125 25.6596 25.9239 25.7252C26.1354 25.7909 26.3305 25.9007 26.4963 26.0473C26.6621 26.194 26.7949 26.3743 26.8858 26.5761C26.9767 26.778 27.0238 26.9969 27.0238 27.2183C27.0238 27.4396 26.9767 27.6585 26.8858 27.8604C26.7949 28.0622 26.6621 28.2425 26.4963 28.3892C26.3305 28.5359 26.1354 28.6457 25.9239 28.7113C25.7125 28.7769 25.4895 28.7969 25.2698 28.7699H15.1665V33.4366H20.9998V37.3333Z" fill="white"/>
<path d="M39.6667 56H7C5.14349 56 3.36301 56.7375 2.05025 58.0503C0.737498 59.363 0 61.1435 0 63V67.6667C0 68.2855 0.245833 68.879 0.683418 69.3166C1.121 69.7542 1.71449 70 2.33333 70H44.3333C44.9522 70 45.5457 69.7542 45.9833 69.3166C46.4208 68.879 46.6667 68.2855 46.6667 67.6667V63C46.6667 61.1435 45.9292 59.363 44.6164 58.0503C43.3037 56.7375 41.5232 56 39.6667 56ZM42 65.3333H4.66667V63C4.66667 62.3812 4.9125 61.7877 5.35008 61.3501C5.78767 60.9125 6.38116 60.6667 7 60.6667H39.6667C40.2855 60.6667 40.879 60.9125 41.3166 61.3501C41.7542 61.7877 42 62.3812 42 63V65.3333Z" fill="white"/>
</svg>
