<svg width="30" height="24" viewBox="0 0 30 24" fill="none" xmlns="http://www.w3.org/2000/svg">
<g clip-path="url(#clip0_566_290)">
<path d="M4.54469 11.2931C4.31036 11.4807 4.17871 11.735 4.17871 12.0001C4.17871 12.2653 4.31036 12.5196 4.54469 12.7071L11.6159 18.3641C11.7313 18.4597 11.8692 18.5358 12.0217 18.5882C12.1742 18.6407 12.3382 18.6682 12.5042 18.6694C12.6702 18.6705 12.8348 18.6452 12.9884 18.595C13.142 18.5447 13.2816 18.4704 13.3989 18.3765C13.5163 18.2826 13.6091 18.171 13.672 18.0481C13.7348 17.9252 13.7664 17.7935 13.765 17.6607C13.7636 17.528 13.7291 17.3967 13.6636 17.2747C13.5981 17.1527 13.5028 17.0424 13.3834 16.9501L8.44594 13.0001H24.9997C25.3312 13.0001 25.6492 12.8948 25.8836 12.7073C26.118 12.5197 26.2497 12.2654 26.2497 12.0001C26.2497 11.7349 26.118 11.4806 25.8836 11.293C25.6492 11.1055 25.3312 11.0001 24.9997 11.0001H8.44594L13.3834 7.05014C13.6111 6.86154 13.7371 6.60894 13.7343 6.34674C13.7314 6.08455 13.6 5.83373 13.3682 5.64833C13.1365 5.46292 12.8229 5.35775 12.4952 5.35547C12.1674 5.35319 11.8517 5.45399 11.6159 5.63614L4.54469 11.2931Z" fill="white"/>
</g>
<defs>
<clipPath id="clip0_566_290">
<rect width="24" height="30" fill="white" transform="matrix(0 -1 1 0 0 24)"/>
</clipPath>
</defs>
</svg>
