<svg width="70" height="70" viewBox="0 0 70 70" fill="none" xmlns="http://www.w3.org/2000/svg">
<path d="M18.6667 0C14.9748 0 11.3657 1.09478 8.29603 3.1459C5.22631 5.19702 2.83376 8.11235 1.42092 11.5232C0.00808791 14.9341 -0.361574 18.6874 0.358683 22.3083C1.07894 25.9293 2.85677 29.2554 5.46735 31.866C8.07793 34.4766 11.404 36.2544 15.025 36.9747C18.646 37.6949 22.3992 37.3252 25.8101 35.9124C29.221 34.4996 32.1363 32.107 34.1874 29.0373C36.2386 25.9676 37.3333 22.3586 37.3333 18.6667C37.3333 13.716 35.3667 8.96802 31.866 5.46734C28.3653 1.96666 23.6174 0 18.6667 0ZM18.6667 32.6667C15.8977 32.6667 13.191 31.8456 10.8887 30.3072C8.5864 28.7689 6.79199 26.5824 5.73236 24.0242C4.67273 21.4661 4.39549 18.6511 4.93568 15.9354C5.47587 13.2197 6.80924 10.7251 8.76718 8.76717C10.7251 6.80924 13.2197 5.47586 15.9354 4.93567C18.6511 4.39548 21.4661 4.67273 24.0242 5.73235C26.5824 6.79198 28.7689 8.58639 30.3072 10.8887C31.8456 13.191 32.6667 15.8977 32.6667 18.6667C32.6667 22.3797 31.1917 25.9406 28.5662 28.5662C25.9407 31.1917 22.3797 32.6667 18.6667 32.6667Z" fill="white"/>
<path d="M18.667 8.16675C16.5903 8.16675 14.5602 8.78256 12.8335 9.93632C11.1068 11.0901 9.76098 12.7299 8.96626 14.6486C8.17154 16.5672 7.96361 18.6784 8.36875 20.7152C8.7739 22.752 9.77392 24.6229 11.2424 26.0914C12.7108 27.5598 14.5817 28.5598 16.6185 28.965C18.6553 29.3701 20.7665 29.1622 22.6852 28.3675C24.6038 27.5728 26.2437 26.2269 27.3974 24.5002C28.5512 22.7735 29.167 20.7434 29.167 18.6667C29.1608 15.8839 28.0526 13.2167 26.0848 11.2489C24.117 9.28114 21.4499 8.17291 18.667 8.16675ZM18.667 24.5001C17.5133 24.5001 16.3855 24.158 15.4262 23.517C14.4669 22.876 13.7192 21.965 13.2777 20.8991C12.8362 19.8332 12.7207 18.6603 12.9457 17.5287C13.1708 16.3972 13.7264 15.3578 14.5422 14.542C15.358 13.7262 16.3974 13.1706 17.529 12.9455C18.6605 12.7204 19.8334 12.8359 20.8993 13.2774C21.9652 13.719 22.8763 14.4666 23.5172 15.4259C24.1582 16.3852 24.5003 17.513 24.5003 18.6667C24.5003 19.4328 24.3494 20.1913 24.0563 20.8991C23.7631 21.6068 23.3335 22.2499 22.7918 22.7915C22.2501 23.3332 21.607 23.7629 20.8993 24.056C20.1916 24.3492 19.433 24.5001 18.667 24.5001Z" fill="white"/>
<path d="M51.3337 32.6667C47.6417 32.6667 44.0327 33.7615 40.963 35.8126C37.8933 37.8638 35.5008 40.7791 34.0879 44.19C32.6751 47.6009 32.3054 51.3541 33.0257 54.9751C33.7459 58.5961 35.5238 61.9222 38.1343 64.5327C40.7449 67.1433 44.071 68.9211 47.692 69.6414C51.313 70.3617 55.0662 69.992 58.4771 68.5792C61.888 67.1663 64.8033 64.7738 66.8544 61.7041C68.9055 58.6343 70.0003 55.0253 70.0003 51.3334C70.0003 46.3827 68.0337 41.6348 64.533 38.1341C61.0323 34.6334 56.2844 32.6667 51.3337 32.6667ZM51.3337 65.3334C48.5647 65.3334 45.858 64.5123 43.5557 62.974C41.2534 61.4356 39.459 59.2491 38.3994 56.691C37.3397 54.1328 37.0625 51.3179 37.6027 48.6021C38.1429 45.8864 39.4762 43.3919 41.4342 41.4339C43.3921 39.476 45.8867 38.1426 48.6024 37.6024C51.3181 37.0622 54.1331 37.3395 56.6912 38.3991C59.2494 39.4587 61.4359 41.2531 62.9742 43.5554C64.5126 45.8577 65.3337 48.5645 65.3337 51.3334C65.3337 55.0464 63.8587 58.6074 61.2332 61.2329C58.6077 63.8584 55.0467 65.3334 51.3337 65.3334Z" fill="white"/>
<path d="M51.333 40.8333C49.2563 40.8333 47.2262 41.4491 45.4995 42.6028C43.7728 43.7566 42.427 45.3965 41.6323 47.3151C40.8376 49.2337 40.6296 51.3449 41.0348 53.3817C41.4399 55.4185 42.4399 57.2894 43.9084 58.7579C45.3768 60.2263 47.2478 61.2263 49.2846 61.6315C51.3214 62.0366 53.4326 61.8287 55.3512 61.034C57.2698 60.2393 58.9097 58.8935 60.0634 57.1667C61.2172 55.44 61.833 53.41 61.833 51.3332C61.8268 48.5504 60.7186 45.8832 58.7508 43.9154C56.783 41.9476 54.1159 40.8394 51.333 40.8333ZM51.333 57.1666C50.1793 57.1666 49.0515 56.8245 48.0922 56.1835C47.1329 55.5425 46.3852 54.6315 45.9437 53.5656C45.5022 52.4997 45.3867 51.3268 45.6118 50.1952C45.8368 49.0637 46.3924 48.0243 47.2082 47.2085C48.024 46.3927 49.0634 45.8371 50.195 45.612C51.3265 45.3869 52.4994 45.5024 53.5653 45.944C54.6312 46.3855 55.5423 47.1331 56.1832 48.0924C56.8242 49.0517 57.1663 50.1795 57.1663 51.3332C57.1663 52.8803 56.5518 54.3641 55.4578 55.458C54.3638 56.552 52.8801 57.1666 51.333 57.1666Z" fill="white"/>
<path d="M53.667 20.0433L49.0003 15.3767L45.7103 18.6667L54.3437 27.3233C54.5606 27.542 54.8186 27.7156 55.103 27.8341C55.3873 27.9525 55.6923 28.0135 56.0003 28.0135C56.3083 28.0135 56.6133 27.9525 56.8977 27.8341C57.182 27.7156 57.4401 27.542 57.657 27.3233L66.2903 18.6667L63.0003 15.3767L58.3337 20.0433V9.33333C58.3337 8.71449 58.0878 8.121 57.6502 7.68342C57.2127 7.24583 56.6192 7 56.0003 7H39.667V11.6667H53.667V20.0433Z" fill="white"/>
<path d="M16.3333 49.9565L21 54.6232L24.29 51.3332L15.6566 42.6765C15.4397 42.4578 15.1816 42.2842 14.8973 42.1658C14.613 42.0473 14.308 41.9863 14 41.9863C13.6919 41.9863 13.387 42.0473 13.1026 42.1658C12.8183 42.2842 12.5602 42.4578 12.3433 42.6765L3.70996 51.3332L6.99996 54.6232L11.6666 49.9565V60.6665C11.6666 61.2854 11.9125 61.8789 12.35 62.3164C12.7876 62.754 13.3811 62.9999 14 62.9999H30.3333V58.3332H16.3333V49.9565Z" fill="white"/>
</svg>
