<svg width="14" height="15" viewBox="0 0 14 15" fill="none" xmlns="http://www.w3.org/2000/svg">
<path d="M3.1135 6.27249L0.0349995 10.8192C-0.0548325 10.965 0.0379161 11.1546 0.207955 11.1733L6.28212 11.817L3.1135 6.27249ZM0.216122 9.19991L2.41205 5.63142L0.176747 4.29035C0.0988736 4.24369 0 4.29969 0 4.39039V9.13895C0 9.25649 0.154289 9.30024 0.216122 9.19991ZM0.532284 12.3548L6.2022 14.9115C6.35678 14.983 6.53324 14.8698 6.53324 14.6998V12.7844L0.59645 12.134C0.46666 12.1194 0.414744 12.2971 0.532284 12.3548ZM2.90117 4.83635L5.23242 0.667324C5.359 0.46141 5.12772 0.222538 4.91801 0.342412L0.519451 3.21849C0.44741 3.26574 0.449743 3.37191 0.523242 3.41624L2.90117 4.83635ZM6.9999 5.13326H10.1851L7.39743 0.222247C7.30614 0.0740823 7.15302 0 6.9999 0C6.84678 0 6.69365 0.0740823 6.60236 0.222247L3.81465 5.13326H6.9999ZM13.823 4.29035L11.5877 5.63171L13.7837 9.2002C13.8452 9.30053 13.9998 9.25678 13.9998 9.13895V4.39039C13.9998 4.29969 13.9009 4.24369 13.823 4.29035ZM11.0986 4.83635L13.4766 3.41595C13.5503 3.37162 13.5524 3.26545 13.4803 3.2182L9.08178 0.342412C8.87208 0.222538 8.64079 0.46141 8.76737 0.667324L11.0986 4.83635ZM13.4033 12.134L7.46656 12.7841V14.6995C7.46656 14.8698 7.64301 14.9827 7.7976 14.9112L13.4675 12.3545C13.5851 12.2971 13.5331 12.1194 13.4033 12.134ZM10.8863 6.27249L7.71797 11.817L13.7921 11.1733C13.9622 11.1543 14.0549 10.965 13.9651 10.8192L10.8863 6.27249ZM6.9999 6.06658H4.07073L6.9999 11.1925L9.92906 6.06658H6.9999Z" fill="url(#paint0_linear_433_838)"/>
<defs>
<linearGradient id="paint0_linear_433_838" x1="7" y1="0" x2="7" y2="14.9333" gradientUnits="userSpaceOnUse">
<stop stop-color="#2589AC"/>
<stop offset="1" stop-color="#DB9B1E"/>
</linearGradient>
</defs>
</svg>
