<svg width="83" height="35" viewBox="0 0 83 35" fill="none" xmlns="http://www.w3.org/2000/svg">
<path d="M41.6868 11.3821C42.0251 11.3774 42.3128 11.3145 42.308 10.9688V10.9169C42.3128 10.5727 42.0251 10.5098 41.6868 10.5051C41.347 10.5098 41.0593 10.5727 41.064 10.9169V10.9688C41.0593 11.3145 41.347 11.3774 41.6868 11.3821Z" fill="white"/>
<path d="M29.3188 10.6868C29.3188 10.5862 29.2382 10.5061 29.137 10.5061H28.127V10.866H29.137C29.1876 10.866 29.2303 10.8487 29.2651 10.8141C29.3014 10.778 29.3188 10.7356 29.3188 10.6868Z" fill="white"/>
<path d="M35.0048 10.5012L35.2957 11.1252H34.7124L35.0048 10.5012Z" fill="white"/>
<path d="M47.9828 10.5012L48.2738 11.1252H47.6904L47.9828 10.5012Z" fill="white"/>
<path d="M27.3188 23.6404L26.8889 22.718L26.4565 23.6404H27.3188Z" fill="white"/>
<path d="M37.465 23.3755C37.465 23.6891 37.285 23.947 36.9673 23.947H35.626V22.804H36.9673C37.285 22.804 37.465 23.0595 37.465 23.3755Z" fill="white"/>
<path d="M40.8625 22.718L41.2925 23.6404H40.4302L40.8625 22.718Z" fill="white"/>
<path d="M46.0879 22.7258C46.2374 22.7258 46.3566 22.8444 46.3566 22.993C46.3566 23.065 46.3309 23.1278 46.2772 23.1812C46.2257 23.2324 46.1627 23.2579 46.0879 23.2579H44.5947V22.7258H46.0879Z" fill="white"/>
<path d="M51.0275 23.3755C51.0275 23.6891 50.8473 23.947 50.5294 23.947H49.188V22.804H50.5294C50.8473 22.804 51.0275 23.0595 51.0275 23.3755Z" fill="white"/>
<path d="M21.6417 17.5543L20.0834 13.9768H17.4097V19.9392H19.3576V16.7188L20.7632 19.9392H22.505L23.9258 16.7188V19.9392H25.8662V13.9768H23.2765L21.6417 17.5543Z" fill="white"/>
<path d="M33.8161 19.9392V18.4581H29.5153V17.6834H33.6404V16.2327H29.5153V15.4655H33.7627V13.9768H27.4985V19.9392H33.8161Z" fill="white"/>
<path d="M35.4593 18.8836C36.0552 19.6507 37.117 20.0305 38.3927 20.0305C39.3508 20.0305 40.053 19.837 40.5423 19.5302C40.6264 19.4774 40.7043 19.4212 40.7762 19.3621L40.8297 19.9393H42.472V16.4075H38.4844V17.6911H40.6158C40.6064 17.7519 40.5738 17.8472 40.5269 17.9381C40.4977 17.9949 40.4629 18.0498 40.4248 18.0936C40.2032 18.3519 39.615 18.5797 38.8511 18.5797C38.0566 18.5797 37.5448 18.3747 37.2698 18.0557C37.0864 17.8202 36.9795 17.486 36.9795 16.9847C36.9795 16.4607 37.0864 16.1036 37.2927 15.8682C37.5906 15.534 38.0948 15.3897 38.8358 15.3897C39.5004 15.3897 39.9588 15.5416 40.1727 15.7315C40.3102 15.8454 40.4171 16.0049 40.44 16.1113H42.4186C42.4158 16.0412 42.4057 15.9555 42.3886 15.8643C42.3595 15.7084 42.3103 15.5362 42.2429 15.3973C41.7692 14.4402 40.6692 13.8706 38.7977 13.8706C37.1705 13.8706 36.0781 14.3643 35.4746 15.1087C35.0774 15.6175 34.894 16.2556 34.894 16.9695C34.894 17.7594 35.1079 18.4355 35.4593 18.8836Z" fill="white"/>
<path d="M37.228 16.985C37.228 16.4894 37.3299 16.2027 37.4795 16.0315C37.7044 15.7799 38.1148 15.637 38.8359 15.637C39.4772 15.637 39.8609 15.786 40.0073 15.916L40.0105 15.9188L40.0138 15.9215C40.0641 15.9633 40.1102 16.0147 40.145 16.0648C40.1794 16.1143 40.1932 16.1487 40.1966 16.1607H38.2361V17.9384H40.2317C40.1603 18.0187 40.0069 18.1189 39.7631 18.1994C39.5205 18.2795 39.2092 18.333 38.8512 18.333C38.0964 18.333 37.6718 18.1388 37.4626 17.8998C37.3258 17.7215 37.228 17.4481 37.228 16.985Z" fill="white"/>
<path d="M47.6619 16.1741L47.0928 17.2545H48.1996L47.6619 16.1741Z" fill="white"/>
<path fill-rule="evenodd" clip-rule="evenodd" d="M49.2491 18.8378L49.7763 19.9392H51.984L48.9586 13.9768H46.4913L43.2905 19.9392H45.4524L46.01 18.8378H49.2491ZM46.6823 17.5011L47.4386 16.0656L47.6678 15.5187L47.8817 16.0579L48.5999 17.5011H46.6823Z" fill="white"/>
<path fill-rule="evenodd" clip-rule="evenodd" d="M65.1896 30.2633H65.1862C65.1437 30.2633 65.1012 30.263 65.0586 30.2626V30.2633H18.333C14.2098 30.2633 10.5319 28.3675 8.13289 25.4049H15.0173V24.5373H7.48784C6.36459 22.8881 5.61192 20.969 5.34867 18.8982H15.0173V18.0306H5.2678C5.25241 17.7723 5.24463 17.5119 5.24463 17.2498C5.24463 15.5323 5.57924 13.8926 6.18724 12.3914H15.0173V11.5239H6.57641C7.50139 9.6499 8.86618 8.02944 10.5371 6.79565H57.3932C57.9775 6.3643 58.5992 5.98019 59.2523 5.649C59.0761 5.73825 58.9026 5.83129 58.7313 5.92806H11.875C13.7806 4.85125 15.9845 4.23633 18.333 4.23633H65.0586V4.23694C65.1023 4.23651 65.1459 4.23633 65.1896 4.23633C72.4179 4.23633 78.2779 10.0626 78.2779 17.2498C78.2779 24.4369 72.4179 30.2633 65.1896 30.2633ZM70.0562 23.3532C70.6422 21.5979 70.9919 19.513 70.9919 17.2498C70.9919 15.1399 70.6875 13.185 70.1721 11.5076C70.1088 11.3027 70.0428 11.1021 69.974 10.9058C69.8587 10.5788 69.735 10.264 69.604 9.96229C69.4272 9.55486 69.2369 9.17137 69.0349 8.81435C68.0801 7.12985 66.9911 6.22263 65.9748 5.91721V9.96229H68.6476C68.8737 10.442 69.0802 10.9643 69.2626 11.5239H65.9748V16.4689H70.1049C70.1144 16.7263 70.1195 16.9866 70.1195 17.2498C70.1195 17.5129 70.1144 17.7733 70.1049 18.0306H65.9748V22.9757H69.2621C69.0802 23.5353 68.8737 24.0576 68.6476 24.5373H65.9748V28.5824C66.9911 28.2771 68.0801 27.3698 69.0349 25.6852C69.2369 25.3282 69.4277 24.9447 69.604 24.5373C69.7669 24.1623 69.918 23.7669 70.0562 23.3532ZM71.8124 11.5239C72.2315 13.0313 72.4907 14.7027 72.5494 16.4689H76.6807C76.5592 14.6761 76.0225 12.9964 75.1663 11.5239H71.8124ZM74.0744 9.96229H71.2992C70.7955 8.64998 70.1598 7.50851 69.4255 6.59739C71.2499 7.31514 72.8455 8.48261 74.0744 9.96229ZM64.4044 5.91704V9.96229H60.7746C60.9514 9.55486 61.1417 9.17137 61.3443 8.81435C62.2985 7.12957 63.3881 6.22224 64.4044 5.91704ZM60.9531 6.59734C60.2188 7.50845 59.5837 8.64993 59.08 9.96229H56.3041C57.5331 8.48255 59.1292 7.31503 60.9531 6.59734ZM58.5662 11.5239H53.5406V12.3914H54.7567C54.1657 13.6435 53.7961 15.0192 53.6979 16.4689H57.8292C57.8885 14.7027 58.1471 13.0313 58.5662 11.5239ZM64.4044 11.5239H60.2021C59.7532 12.9885 59.4661 14.664 59.4012 16.4689H64.4044V11.5239ZM72.5494 18.0306C72.4907 19.7968 72.2315 21.4683 71.8124 22.9757H75.1663C76.0225 21.5032 76.5592 19.8234 76.6807 18.0306H72.5494ZM60.2021 22.9757C59.7532 21.511 59.4661 19.8356 59.4012 18.0306H64.4044V22.9757H60.2021ZM58.5662 22.9757C58.1471 21.4683 57.8885 19.7968 57.8292 18.0306H53.6979C53.8194 19.8234 54.3558 21.5032 55.2125 22.9757H58.5662ZM71.2992 24.5373C70.7955 25.8496 70.1598 26.991 69.4261 27.9021C71.2499 27.1844 72.8455 26.0169 74.0744 24.5373H71.2992ZM60.7746 24.5373H64.4044V28.5826C63.3881 28.2774 62.2985 27.3701 61.3443 25.6852C61.1417 25.3282 60.9514 24.9447 60.7746 24.5373ZM59.08 24.5373L53.5406 24.5373V25.4049H57.1033C58.1957 26.4758 59.5019 27.3313 60.9531 27.9022C60.2188 26.9911 59.5837 25.8496 59.08 24.5373ZM41.6868 9.83525C40.8869 9.83681 40.2325 10.0663 40.2357 10.8663V11.0203C40.2325 11.8187 40.8869 12.0498 41.6868 12.0513C42.4851 12.0498 43.1395 11.8187 43.1363 11.0203V10.8663C43.1363 10.0678 42.4866 9.83525 41.6868 9.83525ZM16.8376 9.88711V11.9995H17.6659V9.88711H16.8376ZM20.1777 11.0062L19.2451 9.88711H18.1054V11.9995H18.9337V10.7091L20.075 11.9995H21.0076V9.88711H20.1777V11.0062ZM23.1084 10.5598V12.0026H22.2801V10.5598H21.2953V9.89028H24.0932V10.5598H23.1084ZM24.3714 12.0026H26.8579V11.4604H25.1997V11.1901H26.8579V10.7012H25.1997V10.4309H26.8579V9.89028H24.3714V12.0026ZM27.2989 12.001V9.88867H29.346C29.7838 9.884 30.1553 10.2502 30.149 10.6871C30.149 10.8459 30.1063 10.9904 30.021 11.1193C29.9372 11.2466 29.825 11.3441 29.6858 11.4085L30.149 12.001H29.2669L28.867 11.4855H28.1272V12.001H27.2989ZM32.479 11.0062L31.5464 9.88711H30.4067V11.9995H31.235V10.7091L32.3763 11.9995H33.3089V9.88711H32.479V11.0062ZM34.3048 12.0026H33.3721L34.5118 9.89028H35.4966L36.6364 12.0026H35.7037L35.5362 11.6411H34.4723L34.3048 12.0026ZM37.9009 12.0026V10.5598H38.8857V9.89028H36.0879V10.5598H37.0727V12.0026H37.9009ZM39.1639 11.9995V9.88711H39.9922V11.9995H39.1639ZM44.5242 9.88711L45.4569 11.0062V9.88711H46.2868V11.9995H45.3541L44.2128 10.7091V11.9995H43.3845V9.88711H44.5242ZM46.35 12.0026H47.2826L47.4502 11.6411H48.5139L48.6818 12.0026H49.6142L48.4747 9.89028H47.4897L46.35 12.0026ZM49.6791 11.9995V9.88711H50.5073V11.3299H52.1656V11.9995H49.6791ZM18.9838 22.5348C18.6029 22.5348 18.1356 22.5906 18.1356 22.8392C18.1356 22.9763 18.5165 22.9949 19.0095 23.0181L19.0149 23.0184C19.8909 23.0625 21.1172 23.1243 21.1149 23.9056C21.1149 24.7978 20.0868 25.0093 18.9838 25.0093C17.8832 25.0069 16.9696 24.8745 16.8527 23.9056H18.1356C18.2758 24.1473 18.6006 24.21 18.9838 24.21C19.3647 24.21 19.8321 24.1473 19.8321 23.9056C19.8321 23.7686 19.4512 23.7477 18.9581 23.7244L18.9527 23.7242C18.0767 23.68 16.8504 23.6183 16.8527 22.8392C16.8527 21.9471 17.8809 21.7333 18.9838 21.7333C20.0844 21.7402 20.9981 21.8634 21.1149 22.8392H19.8321C19.6918 22.5929 19.3671 22.5348 18.9838 22.5348ZM23.8326 22.8044V24.9372H22.6081V22.8044H21.1523V21.8146H25.2883V22.8044H23.8326ZM24.4751 24.9372H25.8538L26.1015 24.4029H27.6742L27.9219 24.9372H29.3005L27.6157 21.8146H26.1599L24.4751 24.9372ZM31.0811 21.81L32.4598 23.4642V21.81H33.6866V24.9326H32.3079L30.6208 23.0251V24.9326H29.3963V21.81H31.0811ZM34.4016 21.8146V24.9372H37.1964C38.0586 24.9488 38.6989 24.224 38.6919 23.3759C38.6989 22.5233 38.0586 21.803 37.1964 21.8146H34.4016ZM39.8275 24.9372H38.4489L40.1337 21.8146H41.5895L43.2742 24.9372H41.8955L41.6478 24.4029H40.0752L39.8275 24.9372ZM43.37 21.8123V24.9349H44.5945V24.1728H45.6881L46.2793 24.9349H47.5832L46.8985 24.059C47.1042 23.9637 47.27 23.8197 47.3939 23.6315C47.5201 23.441 47.5832 23.2272 47.5832 22.9926C47.5925 22.3466 47.0434 21.8053 46.3961 21.8123H43.37ZM47.9641 24.9372V21.8146H50.7586C51.621 21.803 52.2613 22.5233 52.2545 23.3759C52.2613 24.224 51.621 24.9488 50.7586 24.9372H47.9641ZM26.1145 20.1862H23.6773V17.8967L22.6672 20.1862H20.6001L19.6059 17.9084V20.1862H17.1611V13.7298H20.2464L21.647 16.9452L23.1164 13.7298H26.1145V20.1862ZM34.0649 20.1862H27.2505V13.7298H34.0114V15.7125H29.764V15.9857H33.8892V17.9304H29.764V18.2111H34.0649V20.1862ZM42.7208 20.1862H40.6034L40.5678 19.8029C40.037 20.1026 39.3184 20.2774 38.3931 20.2774C37.0767 20.2774 35.9247 19.8859 35.2634 19.035C34.87 18.533 34.6459 17.7992 34.6459 16.9694C34.6459 16.2134 34.8405 15.5184 35.2787 14.9571L35.2801 14.9553L35.2815 14.9535C35.9472 14.1325 37.1234 13.6235 38.798 13.6235C40.7119 13.6235 41.9317 14.2083 42.4661 15.2881L42.4665 15.289L42.4669 15.2898C42.5912 15.5456 42.6584 15.8837 42.6671 16.1012L42.6695 16.1603H42.7208V20.1862ZM46.1633 19.0849L45.6057 20.1862H42.8765L46.3425 13.7298H49.1122L52.3877 20.1862H49.6192L49.0926 19.0849H46.1633ZM16.806 28.1377H52.3625V27.2701H16.806V28.1377Z" fill="white"/>
<path fill-rule="evenodd" clip-rule="evenodd" d="M18.3331 1.11353H65.1896C74.1528 1.11353 81.4192 8.33815 81.4192 17.2502C81.4192 26.1623 74.1528 33.3869 65.1896 33.3869H18.3331C9.36973 33.3869 2.10352 26.1623 2.10352 17.2502C2.10352 8.33815 9.36973 1.11353 18.3331 1.11353ZM18.3331 2.67517C10.2372 2.67517 3.67415 9.20063 3.67415 17.2502C3.67415 25.2998 10.2372 31.8253 18.3331 31.8253H65.1896C73.2854 31.8253 79.8483 25.2998 79.8483 17.2502C79.8483 9.20063 73.2854 2.67517 65.1896 2.67517H18.3331Z" fill="white"/>
</svg>
