<svg width="41" height="35" viewBox="0 0 41 35" fill="none" xmlns="http://www.w3.org/2000/svg">
<g clip-path="url(#clip0_433_355)">
<path d="M9.26689 29.7878H11.0493C11.0301 29.965 10.9916 30.313 10.8633 30.5598C10.4594 31.4141 9.52978 31.8887 7.76664 31.8887C6.35609 31.8887 5.43924 31.5407 4.94556 30.9522C4.60575 30.5598 4.43262 30.0156 4.43262 29.3195C4.43262 28.6867 4.59293 28.1614 4.91348 27.7754C5.42642 27.1426 6.34968 26.7629 7.79868 26.7629C9.77338 26.7629 10.5941 27.459 10.8954 28.1994C10.998 28.4589 11.0301 28.75 11.0365 28.9082H9.25408C9.24762 28.7943 9.20278 28.6487 9.12584 28.5411C8.9399 28.2754 8.52956 28.0792 7.77946 28.0792C7.09983 28.0792 6.60616 28.25 6.38172 28.5981C6.26634 28.769 6.22145 29.0221 6.22145 29.3385C6.22145 29.6802 6.27916 29.9144 6.40099 30.0852C6.65105 30.4522 7.20885 30.5915 7.78587 30.5915C8.45903 30.5915 8.93985 30.4586 9.15147 30.1548C9.22845 30.0472 9.26049 29.9207 9.26689 29.7878Z" fill="white"/>
<path d="M16.5551 30.4902V31.8128H11.7529V26.8452H13.4904V30.4902H16.5551Z" fill="white"/>
<path d="M22.5396 31.8128V30.5788H18.9299V29.9334H22.3921V28.7247H18.9299V28.0855H22.4947V26.8452H17.2373V31.8128H22.5396Z" fill="white"/>
<path fill-rule="evenodd" clip-rule="evenodd" d="M27.8232 30.8953H25.1047L24.6367 31.8128H22.8223L25.5087 26.8452H27.5795L30.1185 31.8128H28.2656L27.8232 30.8953ZM25.669 29.7815H27.2784L26.6756 28.5791L26.496 28.1298L26.3037 28.5854L25.669 29.7815Z" fill="white"/>
<path fill-rule="evenodd" clip-rule="evenodd" d="M36.5615 28.3576C36.5615 27.9083 36.4525 27.5856 36.2215 27.3515C35.9203 27.035 35.4007 26.8452 34.6062 26.8452H30.5986V31.8128H32.3108V30.0599H33.8686L35.1187 31.8128H37.0296L35.5102 29.7878C35.8497 29.7372 36.1256 29.5347 36.3047 29.2942C36.4651 29.0727 36.5615 28.7436 36.5615 28.3576ZM34.8942 28.5158C34.8942 28.5981 34.8816 28.6994 34.8367 28.7753C34.7726 28.9019 34.6062 28.9525 34.3302 28.9525H32.3169V28.0475H34.2979C34.5673 28.0475 34.7469 28.0919 34.8367 28.2564C34.8816 28.3197 34.8942 28.4209 34.8942 28.5158Z" fill="white"/>
<path d="M27.1076 4.22069C27.1076 4.30299 27.095 4.40422 27.0501 4.48015C26.986 4.60672 26.8191 4.65736 26.5435 4.65736H24.5303V3.75244H26.5114C26.7807 3.75244 26.9603 3.79671 27.0501 3.96127C27.095 4.02455 27.1076 4.12578 27.1076 4.22069Z" fill="white"/>
<path d="M32.1201 5.48589H33.7294L33.1265 4.2835L32.9469 3.83423L32.7547 4.28988L32.1201 5.48589Z" fill="white"/>
<path fill-rule="evenodd" clip-rule="evenodd" d="M1.50336 4.20928C1.71095 2.19181 3.4372 0.617432 5.53601 0.617432H35.7689C38.0077 0.617432 39.8223 2.4087 39.8223 4.61837V29.6567C39.8223 31.8664 38.0077 33.6576 35.7689 33.6576H5.53601C3.29726 33.6576 1.48242 31.8664 1.48242 29.6567V4.61837C1.48242 4.48025 1.48953 4.34382 1.50336 4.20928ZM2.32691 11.808L15.9512 16.3559C16.3223 15.9842 16.8274 15.6611 17.435 15.4094C17.5747 15.3515 17.7189 15.2978 17.8669 15.2484L12.1867 9.55996H16.633L19.1291 14.9461C19.4587 14.8951 19.7975 14.8626 20.141 14.8496C20.2553 14.8452 20.3696 14.8431 20.4836 14.8431V9.55996H24.3342L21.8381 14.9462C22.2226 15.0058 22.5959 15.0908 22.9503 15.2004C23.4065 15.3414 23.8218 15.5199 24.184 15.7294L34.8543 9.55996H38.9778V11.6952L23.3587 16.9091C23.0304 16.5803 22.5408 16.3152 21.9518 16.1473C21.3629 15.9794 20.7011 15.9162 20.05 15.9657C19.399 16.0153 18.788 16.1753 18.2943 16.4256C17.8006 16.676 17.4464 17.0054 17.2764 17.3721C17.1065 17.7388 17.1284 18.1264 17.3395 18.486C17.5506 18.8455 17.9413 19.1608 18.4623 19.392C18.9832 19.623 19.611 19.7596 20.2663 19.7845C20.6304 19.7983 20.9939 19.7772 21.3426 19.7232C21.6214 19.68 21.8909 19.6157 22.1435 19.5314L27.32 24.7151H23.6563L21.8378 20.7917C20.9496 20.9293 20.0154 20.929 19.1291 20.7918L17.3108 24.7151H13.6473L17.8668 20.4895C17.4718 20.3576 17.1071 20.1961 16.7829 20.0086L8.64285 24.7151H2.32691V23.93L15.9511 19.3819C15.6377 19.068 15.4229 18.7227 15.3198 18.3619C15.1981 17.9354 15.2362 17.5004 15.4283 17.0858L2.32691 15.0561V11.808ZM38.9778 24.0426L20.4836 17.8689L38.9778 20.7341V24.0426ZM38.9778 25.5486H2.32691V29.6567C2.32691 31.406 3.76365 32.8241 5.53601 32.8241H35.7689C37.5411 32.8241 38.9778 31.406 38.9778 29.6567V25.5486ZM11.3211 5.6006V2.55041H9.60281V5.44868C9.60281 5.96761 9.11554 6.31566 8.29492 6.31566C7.43575 6.31566 6.9677 5.98026 6.9677 5.44236V2.55041H5.2302V5.44236C5.2302 6.94847 6.48048 7.58765 8.22439 7.58765C10.0901 7.58765 11.3211 6.94214 11.3211 5.6006ZM17.1078 7.51804V6.19541H14.0432V2.55041H12.3057V7.51804H17.1078ZM22.2715 2.55041V3.79705H20.143V7.51804H18.3862V3.79705H16.264V2.55041H22.2715ZM28.7744 4.06284C28.7744 3.61357 28.6654 3.29082 28.4349 3.05665C28.1337 2.74027 27.6141 2.55041 26.819 2.55041H22.812V7.51804H24.5238V5.76511H26.0818L27.3321 7.51804H29.2425L27.7231 5.493C28.0631 5.44236 28.3385 5.23985 28.5181 4.99941C28.6785 4.77796 28.7744 4.44888 28.7744 4.06284ZM34.2741 6.60042H31.5555L31.0879 7.51804H29.2733L31.9596 2.55041H34.0305L36.5695 7.51804H34.7165L34.2741 6.60042Z" fill="white"/>
</g>
<defs>
<clipPath id="clip0_433_355">
<rect width="40.3578" height="34.8545" fill="white" transform="translate(0.473633 0.000244141)"/>
</clipPath>
</defs>
</svg>
