<svg width="132" height="43" viewBox="0 0 132 43" fill="none" xmlns="http://www.w3.org/2000/svg">
<path d="M94.1299 39.1883C94.9289 39.1883 95.4016 38.5829 95.4016 37.6365C95.4016 36.6554 94.8942 36.0848 94.1467 36.0848C93.7193 36.0848 93.4224 36.2743 93.2003 36.5754H93.1898V35.0247H92.7266V39.1019H93.1898V38.7145H93.2003C93.4403 39.0451 93.7309 39.1883 94.1299 39.1883ZM94.0962 38.7998C93.4688 38.7998 93.1603 38.304 93.1603 37.6418C93.1603 37.0038 93.4572 36.4785 94.1014 36.4785C94.6605 36.4785 94.9289 36.9807 94.9289 37.6418C94.9289 38.3092 94.6605 38.7998 94.0962 38.7998ZM96.1838 40.0778C96.5428 40.0778 96.7712 39.9515 97.0102 39.3409L98.2714 36.1532H97.7808L97.107 37.9902C97.0165 38.2355 96.9133 38.5661 96.9133 38.5661H96.9028C96.9028 38.5661 96.7933 38.2355 96.7028 37.9902L96.0069 36.1532H95.5048L96.6565 39.0167L96.5428 39.3072C96.4291 39.5925 96.2975 39.6673 96.1038 39.6673C95.9956 39.6727 95.8877 39.651 95.7901 39.6041H95.7669V40.0147C95.8932 40.0663 96.0069 40.0778 96.1838 40.0778ZM99.4536 39.1019H100.229V35.0247H99.4536V39.1019ZM102.127 39.1883C103.033 39.1883 103.655 38.5145 103.655 37.6418C103.655 36.7691 103.034 36.0964 102.127 36.0964C101.22 36.0964 100.598 36.7701 100.598 37.6418C100.598 38.5156 101.219 39.1883 102.127 39.1883ZM102.127 38.5945C101.648 38.5945 101.385 38.2124 101.385 37.6418C101.385 37.0722 101.648 36.6838 102.127 36.6838C102.6 36.6838 102.868 37.0722 102.868 37.6418C102.868 38.2124 102.6 38.5945 102.127 38.5945ZM105.305 40.0999C105.738 40.0999 106.114 39.9978 106.36 39.7694C106.576 39.5694 106.708 39.2904 106.708 38.8798V36.1764H105.961V36.4848H105.949C105.772 36.2395 105.505 36.0964 105.138 36.0964C104.398 36.0964 103.873 36.6554 103.873 37.5281C103.873 38.4124 104.512 38.9251 105.163 38.9251C105.533 38.9251 105.755 38.7777 105.926 38.5829H105.944V38.903C105.944 39.302 105.733 39.5136 105.293 39.5136C104.934 39.5136 104.769 39.3704 104.706 39.1872H103.936C104.015 39.7578 104.506 40.0999 105.305 40.0999ZM105.294 38.304C104.894 38.304 104.631 38.0134 104.631 37.5165C104.631 37.0259 104.894 36.7185 105.288 36.7185C105.755 36.7185 105.984 37.0828 105.984 37.5112C105.984 37.945 105.784 38.304 105.293 38.304H105.294ZM108.594 39.1883C109.5 39.1883 110.122 38.5145 110.122 37.6418C110.122 36.7691 109.5 36.0964 108.594 36.0964C107.686 36.0964 107.065 36.7701 107.065 37.6418C107.065 38.5156 107.686 39.1883 108.594 39.1883ZM108.594 38.5945C108.115 38.5945 107.851 38.2124 107.851 37.6418C107.851 37.0722 108.115 36.6838 108.594 36.6838C109.066 36.6838 109.335 37.0722 109.335 37.6418C109.335 38.2124 109.066 38.5945 108.594 38.5945ZM110.482 39.1019H111.258V36.1764H110.482V39.1019ZM110.482 35.7205H111.258V35.0247H110.482V35.7205ZM111.758 40.0599H112.534V38.7724H112.544C112.711 39.024 112.978 39.1893 113.389 39.1893C114.142 39.1893 114.655 38.5893 114.655 37.6428C114.655 36.7301 114.159 36.0974 113.384 36.0974C113.214 36.0947 113.047 36.1339 112.897 36.2116C112.747 36.2893 112.618 36.4031 112.522 36.5427H112.506V36.1774H111.758V40.062V40.0599ZM113.224 38.544C112.761 38.544 112.516 38.1955 112.516 37.6649C112.516 37.1407 112.711 36.7238 113.195 36.7238C113.674 36.7238 113.868 37.1112 113.868 37.6649C113.868 38.2187 113.617 38.544 113.224 38.544ZM116.203 39.1883C116.932 39.1883 117.435 38.8345 117.435 38.2471C117.435 37.5628 116.892 37.426 116.402 37.3228C115.986 37.2375 115.599 37.2144 115.599 36.9638C115.599 36.7533 115.797 36.6375 116.1 36.6375C116.431 36.6375 116.63 36.7533 116.665 37.0659H117.366C117.309 36.4785 116.882 36.0974 116.111 36.0974C115.444 36.0974 114.919 36.3985 114.919 37.0322C114.919 37.6702 115.432 37.8134 115.958 37.9165C116.356 37.9955 116.727 38.0239 116.727 38.304C116.727 38.5092 116.533 38.6408 116.191 38.6408C115.844 38.6408 115.604 38.4924 115.552 38.1555H114.834C114.879 38.7766 115.353 39.1883 116.203 39.1883ZM120.38 39.1019V36.1764H119.604V37.865C119.604 38.2524 119.381 38.5261 119.017 38.5261C118.686 38.5261 118.531 38.3376 118.531 37.9955V36.1764H117.762V38.1271C117.762 38.7661 118.127 39.182 118.777 39.182C119.187 39.182 119.416 39.0282 119.616 38.7609H119.633V39.1019H120.38ZM120.881 39.1019H121.657V37.4039C121.657 37.0154 121.868 36.7648 122.181 36.7648C122.467 36.7648 122.632 36.9364 122.632 37.267V39.103H123.408V37.4039C123.408 37.0154 123.608 36.7648 123.933 36.7648C124.218 36.7648 124.384 36.9364 124.384 37.267V39.103H125.16V37.1354C125.16 36.4964 124.811 36.0974 124.195 36.0974C123.825 36.0974 123.516 36.2911 123.317 36.6111H123.306C123.235 36.4558 123.121 36.3243 122.977 36.233C122.833 36.1417 122.666 36.0946 122.495 36.0974C122.324 36.0931 122.155 36.1348 122.006 36.2181C121.856 36.3015 121.732 36.4234 121.645 36.5711H121.629V36.1774H120.881V39.104V39.1019Z" fill="#E5708C"/>
<path d="M125.311 2.26227C125.311 1.01687 126.321 0.00623883 127.566 0.00623883H129.07C129.669 0.00623883 130.243 0.243927 130.666 0.667016C131.089 1.0901 131.326 1.66394 131.326 2.26227C131.326 2.86061 131.089 3.43444 130.666 3.85753C130.243 4.28062 129.669 4.51831 129.07 4.51831H127.566C127.27 4.51831 126.976 4.45995 126.703 4.34656C126.429 4.23317 126.18 4.06697 125.971 3.85747C125.762 3.64796 125.596 3.39925 125.482 3.12554C125.369 2.85183 125.311 2.55849 125.311 2.26227ZM62.1557 15.0437C62.1557 23.3477 55.4245 30.08 47.1194 30.08C38.8153 30.08 32.083 23.3477 32.083 15.0437C32.083 6.73749 38.8153 0.00729158 47.1194 0.00729158C55.4245 0.00729158 62.1557 6.73749 62.1557 15.0437ZM29.15 14.9689C29.9817 14.9689 30.6618 15.6427 30.5786 16.4701C30.2944 19.3018 29.2124 21.9947 27.4584 24.2359C25.7043 26.477 23.3503 28.1743 20.6699 29.1306C17.9894 30.0869 15.0926 30.2628 12.3161 29.638C9.53963 29.0131 6.99748 27.6132 4.98511 25.6008C2.97273 23.5884 1.57278 21.0463 0.947942 18.2698C0.323105 15.4933 0.499047 12.5965 1.45532 9.91605C2.41159 7.2356 4.10892 4.88156 6.35006 3.12753C8.59119 1.3735 11.2841 0.291506 14.1158 0.00729158C14.9422 -0.0769281 15.617 0.605251 15.617 1.43481V13.4645C15.617 14.2962 16.2908 14.9689 17.1214 14.9689H29.15ZM83.2075 33.0877C84.4039 33.0877 85.5513 33.563 86.3972 34.409C87.2432 35.2549 87.7185 36.4023 87.7185 37.5987C87.7185 38.7951 87.2432 39.9425 86.3972 40.7885C85.5513 41.6345 84.4039 42.1098 83.2075 42.1098H75.6898C74.4934 42.1098 73.346 41.6345 72.5001 40.7885C71.6541 39.9425 71.1788 38.7951 71.1788 37.5987C71.1788 36.4023 71.6541 35.2549 72.5001 34.409C73.346 33.563 74.4934 33.0877 75.6898 33.0877H83.2075ZM78.6965 30.08C87.0016 30.08 93.7339 23.3477 93.7339 15.0437C93.7375 12.4928 93.0892 9.98333 91.8505 7.75339L94.335 5.26891C94.6212 4.9826 94.8482 4.64273 95.003 4.26869C95.1578 3.89466 95.2374 3.4938 95.2373 3.08899C95.2372 2.68418 95.1574 2.28335 95.0024 1.90939C94.8474 1.53543 94.6203 1.19567 94.3339 0.909495C94.0476 0.62332 93.7078 0.396341 93.3337 0.241518C92.9597 0.0866941 92.5588 0.00705776 92.154 0.00715552C91.7492 0.00725328 91.3484 0.0870833 90.9744 0.242087C90.6005 0.397092 90.2607 0.624235 89.9745 0.910547L87.8059 3.0792C85.1896 1.08099 81.9875 0.000941597 78.6954 0.00623883C70.3924 0.00729158 63.6612 6.73749 63.6612 15.0437C63.6612 23.3477 70.3924 30.08 78.6965 30.08ZM125.311 15.0437C125.311 23.3477 118.579 30.08 110.274 30.08C101.97 30.08 95.2372 23.3477 95.2372 15.0437C95.2372 6.73749 101.97 0.00729158 110.274 0.00729158C118.579 0.00729158 125.311 6.73855 125.311 15.0437Z" fill="url(#paint0_linear_433_484)"/>
<defs>
<linearGradient id="paint0_linear_433_484" x1="0.580632" y1="16.8439" x2="125.857" y2="16.8439" gradientUnits="userSpaceOnUse">
<stop stop-color="#64C2DB"/>
<stop offset="0.307" stop-color="#7476ED"/>
<stop offset="0.604" stop-color="#C994DF"/>
<stop offset="1" stop-color="#E56F8C"/>
</linearGradient>
</defs>
</svg>
