<svg width="163" height="43" viewBox="0 0 163 43" fill="none" xmlns="http://www.w3.org/2000/svg">
<path d="M54.9693 10.8259H51.1982V27.8418H61.6377V24.5076H54.9693V10.8259Z" fill="#2CA277"/>
<path d="M61.998 22.0703C61.998 25.7034 64.4355 28.1178 68.1145 28.1178C71.7706 28.1178 74.208 25.7034 74.208 22.0703C74.208 18.4372 71.7706 15.9998 68.1145 15.9998C64.4355 15.9998 61.998 18.4372 61.998 22.0703ZM65.5621 22.0473C65.5621 20.3228 66.5739 19.173 68.1145 19.173C69.6321 19.173 70.6439 20.3228 70.6439 22.0473C70.6439 23.7949 69.6321 24.9446 68.1145 24.9446C66.5739 24.9446 65.5621 23.7949 65.5621 22.0473Z" fill="#2CA277"/>
<path d="M74.7774 21.8866C74.7774 25.3587 77.031 27.7041 80.2271 27.7041C81.7678 27.7041 83.1014 27.1523 83.7682 26.2555V27.8421C83.7682 29.4287 82.7795 30.4864 81.0319 30.4864C79.4683 30.4864 78.3875 29.7507 78.3186 28.44H74.7314C75.0534 31.5902 77.4908 33.7056 80.8249 33.7056C84.757 33.7056 87.2404 31.1533 87.2404 27.1063V16.345H84.0441L83.8602 17.5176C83.2164 16.5749 81.8597 15.9541 80.2961 15.9541C77.0769 15.9541 74.7774 18.3685 74.7774 21.8866ZM78.3646 21.7946C78.3646 20.139 79.4683 19.0353 80.8709 19.0353C82.5035 19.0353 83.6993 20.116 83.6993 21.7946C83.6993 23.4732 82.5265 24.6229 80.8939 24.6229C79.4913 24.6229 78.3646 23.4732 78.3646 21.7946Z" fill="#2CA277"/>
<path d="M88.2725 22.0703C88.2725 25.7034 90.7099 28.1178 94.389 28.1178C98.0451 28.1178 100.482 25.7034 100.482 22.0703C100.482 18.4372 98.0451 15.9998 94.389 15.9998C90.7099 15.9998 88.2725 18.4372 88.2725 22.0703ZM91.8366 22.0473C91.8366 20.3228 92.8483 19.173 94.389 19.173C95.9066 19.173 96.9183 20.3228 96.9183 22.0473C96.9183 23.7949 95.9066 24.9446 94.389 24.9446C92.8483 24.9446 91.8366 23.7949 91.8366 22.0473Z" fill="#2CA277"/>
<path d="M103.535 14.5516C104.639 14.5516 105.536 13.6548 105.536 12.5281C105.536 11.4014 104.639 10.5276 103.535 10.5276C102.408 10.5276 101.512 11.4014 101.512 12.5281C101.512 13.6548 102.408 14.5516 103.535 14.5516ZM101.742 27.8423H105.306V16.3452H101.742V27.8423Z" fill="#2CA277"/>
<path d="M107.381 33.361H110.876V26.6927C111.542 27.5664 113.06 28.1643 114.647 28.1643C118.073 28.1643 120.142 25.543 120.051 21.9098C119.958 18.2077 117.82 15.9773 114.624 15.9773C112.991 15.9773 111.451 16.6901 110.806 17.7479L110.622 16.3452H107.381V33.361ZM110.944 22.0937C110.944 20.3692 112.094 19.2195 113.75 19.2195C115.428 19.2195 116.486 20.3922 116.486 22.0937C116.486 23.7954 115.428 24.9681 113.75 24.9681C112.094 24.9681 110.944 23.8184 110.944 22.0937Z" fill="#2CA277"/>
<path d="M120.427 24.2092C120.518 26.5317 122.359 28.1412 125.256 28.1412C128.038 28.1412 129.97 26.6696 129.97 24.3012C129.97 22.5997 128.958 21.4729 127.072 21.013L125.026 20.5072C124.29 20.3232 123.83 20.1392 123.83 19.5414C123.83 18.9435 124.312 18.5526 125.026 18.5526C125.83 18.5526 126.359 19.0815 126.337 19.8633H129.533C129.44 17.4719 127.624 15.9773 125.095 15.9773C122.543 15.9773 120.634 17.4949 120.634 19.7943C120.634 21.3349 121.485 22.5997 123.761 23.1976L125.784 23.7263C126.382 23.8873 126.635 24.1632 126.635 24.5541C126.635 25.129 126.106 25.497 125.209 25.497C124.175 25.497 123.623 25.0141 123.623 24.2092H120.427Z" fill="#2CA277"/>
<path d="M135.39 28.1405C136.793 28.1405 138.196 27.4966 138.908 26.5539L139.139 27.8416H142.473V16.3445H138.932V22.323C138.932 24.0475 138.426 24.9903 136.793 24.9903C135.528 24.9903 134.701 24.4155 134.701 22.277V16.3445H131.159V23.5646C131.159 26.301 132.677 28.1405 135.39 28.1405Z" fill="#2CA277"/>
<path d="M148.089 27.8421V21.5647C148.089 19.6331 149.124 19.0813 150.136 19.0813C151.262 19.0813 151.998 19.7711 151.998 21.1968V27.8421H155.493V21.5647C155.493 19.6102 156.505 19.0583 157.516 19.0583C158.643 19.0583 159.402 19.7481 159.402 21.1968V27.8421H162.852V20.323C162.852 17.7017 161.472 15.9541 158.505 15.9541C156.85 15.9541 155.493 16.7588 154.895 18.0005C154.205 16.7588 153.01 15.9541 151.101 15.9541C149.837 15.9541 148.664 16.5289 147.974 17.4487L147.836 16.345H144.524V27.8421H148.089Z" fill="#2CA277"/>
<path d="M0.666016 21.0549C0.666016 11.1295 0.666016 6.16684 3.74943 3.08342C6.83285 0 11.7955 0 21.7209 0C31.6463 0 36.609 0 39.6925 3.08342C42.7758 6.16684 42.7758 11.1295 42.7758 21.0549C42.7758 30.9803 42.7758 35.9429 39.6925 39.0264C36.609 42.1098 31.6463 42.1098 21.7209 42.1098C11.7955 42.1098 6.83285 42.1098 3.74943 39.0264C0.666016 35.9429 0.666016 30.9803 0.666016 21.0549Z" fill="#2CA277"/>
<path d="M25.9319 27.3713C26.5134 27.3713 26.9953 27.8473 26.8798 28.4171C26.6757 29.4236 26.1798 30.3564 25.4429 31.0933C24.4559 32.0805 23.117 32.6351 21.7209 32.6351C20.3249 32.6351 18.9861 32.0805 17.999 31.0933C17.262 30.3564 16.7662 29.4236 16.5622 28.4171C16.4466 27.8473 16.9285 27.3713 17.51 27.3713H25.9319Z" fill="#2DF8BB"/>
<path d="M28.1458 18.714C27.5842 18.8644 27.2402 19.452 27.525 19.9589C27.8247 20.4924 28.2393 20.958 28.7436 21.3194C29.5355 21.8869 30.4996 22.1623 31.4718 22.0985C32.4439 22.0348 33.3639 21.636 34.075 20.97C34.7861 20.3041 35.2441 19.4121 35.3713 18.4462C35.4985 17.4803 35.2869 16.5002 34.7724 15.6728C34.2579 14.8456 33.4725 14.2222 32.55 13.909C31.6274 13.5959 30.6249 13.6123 29.7131 13.9555C29.1324 14.174 28.6115 14.5165 28.1839 14.9542C27.7776 15.3701 27.9578 16.0267 28.4613 16.3174L28.9954 16.6258C29.8076 17.0948 29.6474 18.3116 28.7414 18.5544L28.1458 18.714Z" fill="#2DF8BB"/>
<path d="M15.2967 18.714C15.8584 18.8644 16.2023 19.452 15.9175 19.9589C15.6178 20.4924 15.2032 20.958 14.699 21.3194C13.9071 21.8869 12.9429 22.1623 11.9708 22.0985C10.9986 22.0348 10.0786 21.636 9.36755 20.97C8.6565 20.3041 8.19835 19.4121 8.07119 18.4462C7.94403 17.4803 8.1557 16.5002 8.67017 15.6728C9.18463 14.8456 9.97004 14.2222 10.8926 13.909C11.8151 13.5959 12.8177 13.6123 13.7295 13.9555C14.3101 14.174 14.8311 14.5165 15.2587 14.9542C15.665 15.3701 15.4847 16.0267 14.9812 16.3174L14.4472 16.6258C13.635 17.0948 13.7952 18.3116 14.7011 18.5544L15.2967 18.714Z" fill="#2DF8BB"/>
</svg>
