<svg width="38" height="39" viewBox="0 0 38 39" fill="none" xmlns="http://www.w3.org/2000/svg">
<path fill-rule="evenodd" clip-rule="evenodd" d="M9.59076 0.36731C14.8207 0.36731 19.0604 4.60702 19.0604 9.83698V0.36731H28.5301C33.76 0.36731 37.9998 4.60702 37.9998 9.83698C37.9998 15.0669 33.76 19.3066 28.5301 19.3066C33.76 19.3066 37.9998 23.5464 37.9998 28.7763C37.9998 31.3732 36.9544 33.7259 35.2616 35.4367L35.2262 35.4724L35.1947 35.5037C33.4836 37.1989 31.1291 38.246 28.5301 38.246C25.9488 38.246 23.6086 37.2131 21.9004 35.5381C21.8782 35.5163 21.8561 35.4944 21.834 35.4724C21.8133 35.4517 21.7926 35.4308 21.7721 35.4099C20.0949 33.7014 19.0604 31.3596 19.0604 28.7763C19.0604 34.0062 14.8207 38.246 9.59076 38.246C4.36081 38.246 0.121094 34.0062 0.121094 28.7763V19.3066H9.59076C4.36081 19.3066 0.121094 15.0669 0.121094 9.83698C0.121094 4.60702 4.36081 0.36731 9.59076 0.36731ZM17.1665 9.83698C17.1665 14.021 13.7747 17.4127 9.59076 17.4127V2.26124C13.7747 2.26124 17.1665 5.65301 17.1665 9.83698ZM36.1058 28.7763C36.1058 24.5923 32.7141 21.2006 28.5301 21.2006C24.3461 21.2006 20.9544 24.5923 20.9544 28.7763H36.1058ZM2.01503 21.2006V28.7763C2.01503 32.9603 5.4068 36.352 9.59076 36.352C13.7747 36.352 17.1665 32.9603 17.1665 28.7763V21.2006H2.01503ZM20.9544 17.4127V2.26124H28.5301C32.7141 2.26124 36.1058 5.65301 36.1058 9.83698C36.1058 14.021 32.7141 17.4127 28.5301 17.4127H20.9544Z" fill="#5417D7"/>
</svg>
