<svg width="43" height="43" viewBox="0 0 43 43" fill="none" xmlns="http://www.w3.org/2000/svg">
<path d="M21.3067 10.6534C21.3067 16.5371 16.5371 21.3067 10.6534 21.3067H0V10.6534C0 4.76967 4.76967 0 10.6534 0C16.5371 0 21.3067 4.76967 21.3067 10.6534Z" fill="#17CF97"/>
<path d="M21.3066 31.96C21.3066 26.0763 26.0763 21.3066 31.96 21.3066H42.6134V31.96C42.6134 37.8437 37.8437 42.6134 31.96 42.6134C26.0763 42.6134 21.3066 37.8437 21.3066 31.96Z" fill="#17CF97"/>
<path d="M0 31.96C0 37.8437 4.76967 42.6134 10.6534 42.6134H21.3067V31.96C21.3067 26.0763 16.5371 21.3066 10.6534 21.3066C4.76967 21.3066 0 26.0763 0 31.96Z" fill="#17CF97"/>
<path d="M42.6134 10.6533C42.6134 4.76955 37.8437 -0.00012207 31.96 -0.00012207H21.3066V10.6533C21.3066 16.5369 26.0763 21.3066 31.96 21.3066C37.8437 21.3066 42.6134 16.5369 42.6134 10.6533Z" fill="#17CF97"/>
</svg>
