<svg width="79" height="31" viewBox="0 0 79 31" fill="none" xmlns="http://www.w3.org/2000/svg">
<path d="M7.85839 13.3874C7.83624 13.9225 7.8252 14.5999 7.8252 15.4196C7.8252 16.2393 7.83624 16.9224 7.85839 17.4689C7.88047 18.004 7.92471 18.4309 7.99109 18.7497C8.06851 19.0685 8.17361 19.2905 8.30637 19.4158C8.45018 19.541 8.63822 19.6036 8.87055 19.6036C9.10283 19.6036 9.28534 19.541 9.41811 19.4158C9.56191 19.2905 9.66701 19.0685 9.73339 18.7497C9.81081 18.4309 9.86057 18.004 9.88272 17.4689C9.90487 16.9224 9.91591 16.2393 9.91591 15.4196C9.91591 14.5999 9.90487 13.9225 9.88272 13.3874C9.86057 12.8409 9.81081 12.4083 9.73339 12.0895C9.66701 11.7707 9.56191 11.5487 9.41811 11.4235C9.28534 11.2982 9.10283 11.2356 8.87055 11.2356C8.63822 11.2356 8.45018 11.2982 8.30637 11.4235C8.17361 11.5487 8.06851 11.7707 7.99109 12.0895C7.92471 12.4083 7.88047 12.8409 7.85839 13.3874Z" fill="white"/>
<path fill-rule="evenodd" clip-rule="evenodd" d="M8.44707 2.73347C4.4461 2.82158 1.26586 6.21957 1.33006 10.3377L1.40894 15.3976L1.33006 20.4575C1.26586 24.5757 4.4461 27.9737 8.44707 28.0617L13.3642 28.17L18.2812 28.0617C22.2822 27.9737 25.4625 24.5757 25.3983 20.4575L25.3194 15.3976L25.3983 10.3377C25.4625 6.21957 22.2822 2.82158 18.2812 2.73347L13.3642 2.62524L8.44707 2.73347ZM13.5341 21.8407L11.6756 23.4973L9.98313 21.6187C9.85037 21.6415 9.71761 21.6586 9.5849 21.67C9.46319 21.6927 9.3249 21.7042 9.17005 21.7042H8.87139C8.08598 21.7042 7.42223 21.596 6.88019 21.3797C6.33816 21.1633 5.90122 20.8047 5.56937 20.3038C5.23752 19.7915 4.99967 19.1368 4.85586 18.3399C4.71205 17.5316 4.64015 16.5581 4.64015 15.4196C4.64015 14.2811 4.71205 13.3134 4.85586 12.5164C4.99967 11.7081 5.23752 11.0535 5.56937 10.5525C5.90122 10.0402 6.33816 9.6702 6.88019 9.44251C7.42223 9.20339 8.08598 9.08386 8.87139 9.08386C9.65681 9.08386 10.3205 9.20339 10.8625 9.44251C11.4046 9.6702 11.8416 10.0402 12.1734 10.5525C12.5053 11.0535 12.7431 11.7081 12.8869 12.5164C13.0307 13.3134 13.1026 14.2811 13.1026 15.4196C13.1026 16.5923 13.0252 17.5828 12.8703 18.3911C12.7155 19.1994 12.461 19.8598 12.107 20.3721L13.5341 21.8407ZM18.7719 13.7118V13.0288C18.7719 12.3343 18.7055 11.8618 18.5727 11.6114C18.44 11.3609 18.2243 11.2356 17.9256 11.2356C17.6933 11.2356 17.5053 11.2982 17.3615 11.4235C17.2287 11.5487 17.1236 11.7707 17.0462 12.0895C16.9798 12.4083 16.9356 12.8409 16.9134 13.3874C16.8913 13.9225 16.8803 14.5999 16.8803 15.4196C16.8803 16.2394 16.8913 16.9224 16.9134 17.4689C16.9356 18.004 16.9798 18.4309 17.0462 18.7497C17.1236 19.0685 17.2287 19.2905 17.3615 19.4158C17.5053 19.541 17.6933 19.6036 17.9256 19.6036C18.1137 19.6036 18.2686 19.5581 18.3902 19.467C18.5119 19.3645 18.6059 19.1994 18.6723 18.9718C18.7387 18.7441 18.7829 18.4423 18.8051 18.0666C18.8383 17.6796 18.8548 17.1957 18.8548 16.615H21.8416V17.5202C21.8416 18.3741 21.731 19.0742 21.5097 19.6207C21.2885 20.1672 20.9954 20.5998 20.6303 20.9185C20.2652 21.226 19.8449 21.4309 19.3692 21.5334C18.9046 21.6472 18.4234 21.7042 17.9256 21.7042C17.0628 21.7042 16.3548 21.596 15.8017 21.3797C15.2486 21.1633 14.8172 20.8047 14.5075 20.3038C14.1977 19.7915 13.982 19.1368 13.8603 18.3399C13.7497 17.5316 13.6944 16.5581 13.6944 15.4196C13.6944 14.2583 13.7607 13.2736 13.8935 12.4652C14.0373 11.6569 14.2752 11.0022 14.607 10.5013C14.9389 10.0004 15.3758 9.64172 15.9178 9.4254C16.4599 9.19771 17.1292 9.08386 17.9256 9.08386C18.6226 9.08386 19.2143 9.17498 19.7011 9.35714C20.1878 9.5393 20.5805 9.80115 20.8792 10.1427C21.1889 10.4729 21.4102 10.877 21.5429 11.3552C21.6867 11.8219 21.7586 12.3514 21.7586 12.9434V13.7118H18.7719Z" fill="white"/>
<path fill-rule="evenodd" clip-rule="evenodd" d="M39.8985 11.3289L42.6036 14.2181L45.3088 11.3289H50.0087L44.95 16.2819L50.0087 21.2348H45.3088L42.6036 18.3382L39.8985 21.2348H35.1914L40.2501 16.2819L35.1914 11.3289H39.8985ZM39.6377 16.2819L34.1357 10.8949H40.0783L42.6036 13.5921L45.1289 10.8949H50.8594V10.8876H60.5715C62.7923 10.8642 64.6721 12.7755 64.6417 15.0689C64.6411 15.8937 64.4245 16.6541 63.9907 17.3309C63.6642 17.8432 63.2504 18.2646 62.7547 18.5851L64.8256 21.3217V19.547C64.8256 18.1565 65.8353 17.27 66.9966 16.6821C68.1695 16.0886 69.6495 15.7178 70.8818 15.4178L70.8837 15.4173L70.8976 15.4137C71.6573 15.2214 72.3041 15.0577 72.7647 14.8812C72.9977 14.7917 73.1506 14.7107 73.238 14.6419C73.2489 14.6331 73.258 14.6254 73.2659 14.6187C73.2392 14.5935 73.1846 14.5558 73.0772 14.5124C72.8266 14.4115 72.3988 14.3354 71.7508 14.3352C71.0584 14.3426 70.4698 14.4005 70.0682 14.5455C69.8703 14.617 69.7508 14.6985 69.6835 14.7749C69.6264 14.8405 69.5924 14.9184 69.5955 15.0406L69.6058 15.485H64.9761V15.051C64.9761 14.1601 65.146 13.4152 65.4858 12.8049C65.8274 12.1918 66.3249 11.7442 66.9317 11.4231C68.1222 10.7932 69.7623 10.637 71.5912 10.637C73.4637 10.637 75.0182 10.8593 76.1189 11.4319C76.676 11.722 77.1286 12.1081 77.4399 12.6103C77.7518 13.1138 77.9047 13.7064 77.9047 14.3803C77.9047 15.6273 77.1735 16.4216 76.2773 16.9393C75.4072 17.442 74.312 17.7274 73.4024 17.9558H77.7469V21.6541H65.0768L65.0823 21.6614H60.0072L58.1917 19.2439H55.4642V21.6614H51.0566L51.0645 21.6688H45.1286L42.6036 18.9651L40.0786 21.6688H34.1357L39.6377 16.2819ZM50.8594 21.4678V11.0958L45.5624 16.2819L50.8594 21.4678ZM58.3998 18.8099L60.2153 21.2274H64.2188L62.1163 18.4487C62.248 18.386 62.3736 18.3165 62.4944 18.2406C62.9543 17.9507 63.3366 17.5656 63.6375 17.0926C64.0253 16.4882 64.2188 15.8101 64.2188 15.0657C64.2479 13.0167 62.5617 11.2994 60.5739 11.3215H51.2817V21.2274H55.0413V18.8099H58.3998ZM71.1895 18.3898C71.3212 18.2241 71.5596 18.0832 71.8764 17.9558C72.2495 17.8054 72.7301 17.6738 73.2701 17.5422C75.1214 17.0778 77.4824 16.444 77.4824 14.3803C77.4824 11.9628 75.301 11.0709 71.5912 11.0709C68.1028 11.0709 65.629 11.6558 65.4142 14.617C65.4039 14.7564 65.3984 14.9009 65.3984 15.051H69.1732C69.1726 15.0346 69.1726 15.0185 69.1732 15.0027C69.1938 14.1222 70.3746 13.9157 71.7489 13.9012C73.0905 13.9012 73.7076 14.2107 73.7076 14.6309C73.7076 15.1495 72.5171 15.4509 71.022 15.8293L70.9814 15.8396C68.4984 16.444 65.2479 17.2842 65.2479 19.547V21.22H77.324V18.3898H71.1895ZM73.2895 14.652C73.2895 14.652 73.2871 14.6493 73.2859 14.6429C73.2895 14.6486 73.2895 14.652 73.2895 14.652ZM60.0296 15.0657C60.0296 14.8337 59.8524 14.6521 59.6267 14.6521H55.4642V15.472H59.6267C59.7481 15.472 59.833 15.4341 59.9089 15.3559C59.9956 15.2668 60.0296 15.1778 60.0296 15.0657ZM60.4519 15.0657C60.4519 14.594 60.0861 14.2181 59.6267 14.2181H55.0413V15.9059H59.6267C59.8561 15.9059 60.0503 15.8249 60.208 15.6627C60.3731 15.4932 60.4519 15.2942 60.4519 15.0657Z" fill="white"/>
<path d="M35.5391 28.381H37.3399V25.8433L39.1441 28.381H40.0445L41.8488 25.8433V28.381H43.6496V23.624H41.3986L39.5943 26.0025L37.7935 23.624H35.5391V28.381Z" fill="white"/>
<path d="M47.4438 23.5071C45.705 23.5106 44.2822 24.0273 44.2891 25.8289V26.1758C44.2822 27.9738 45.705 28.4941 47.4438 28.4976C49.1792 28.4941 50.6021 27.9738 50.5954 26.1758V25.8289C50.5954 24.0309 49.1828 23.5071 47.4438 23.5071ZM48.7945 26.059C48.8048 26.8377 48.1792 26.9793 47.4438 26.9899C46.7051 26.9793 46.0796 26.8377 46.0899 26.059V25.9422C46.0796 25.167 46.7051 25.0255 47.4438 25.0149C48.1792 25.0255 48.8048 25.167 48.7945 25.9422V26.059Z" fill="white"/>
<path d="M55.6401 26.0098C55.6401 26.4876 55.3755 26.8805 54.9083 26.8805H52.9357V25.1391H54.9083C55.3755 25.1391 55.6401 25.5284 55.6401 26.0098ZM51.1348 23.6313V28.3883H55.2451C56.5132 28.406 57.455 27.3017 57.4446 26.0098C57.455 24.7108 56.5132 23.6136 55.2451 23.6313H51.1348Z" fill="white"/>
<path d="M62.4585 26.0627C62.4688 26.8449 61.8438 26.9794 61.1078 26.99C60.3693 26.9794 59.7474 26.8449 59.7541 26.0627V23.624H57.9531V26.1795C57.9465 27.9775 59.376 28.4943 61.1078 28.4978C62.8401 28.4943 64.2697 27.9775 64.263 26.1795V23.624H62.4585V26.0627Z" fill="white"/>
<path d="M65.0742 23.624V28.381H70.4806V26.8733H66.8751V23.624H65.0742Z" fill="white"/>
<path d="M71.0947 28.3883H76.5011V27.1672H72.8956V26.5584H76.5011V25.4577H72.8956V24.8489H76.5011V23.6313H71.0947V28.3883Z" fill="white"/>
<path d="M36.5759 5.50184V4.49935H39.2451C39.3744 4.49935 39.487 4.5475 39.5787 4.64816C39.6746 4.74452 39.7205 4.86268 39.7205 5.00275C39.7205 5.13851 39.6746 5.25667 39.5787 5.3574C39.487 5.4537 39.3744 5.50184 39.2451 5.50184H36.5759ZM34.3906 2.77893V8.66252H36.5759V7.22663H39.7914C40.9467 7.24418 41.9267 6.21539 41.9101 5.00275C41.9267 3.7858 40.9467 2.76576 39.7914 2.77893H34.3906Z" fill="white"/>
<path d="M46.2602 2.62524C44.1499 2.62962 42.4234 3.26878 42.4317 5.49703V5.92606C42.4234 8.14994 44.1499 8.79341 46.2602 8.79778C48.3661 8.79341 50.093 8.14994 50.0845 5.92606V5.49703C50.0845 3.27315 48.3704 2.62524 46.2602 2.62524ZM47.8989 5.78155C47.9117 6.74464 47.1526 6.91975 46.2602 6.93293C45.3636 6.91975 44.6045 6.74464 44.617 5.78155V5.63711C44.6045 4.67839 45.3636 4.50328 46.2602 4.49016C47.1526 4.50328 47.9117 4.67839 47.8989 5.63711V5.78155Z" fill="white"/>
<path d="M58.6055 6.50397L57.3083 2.77856H54.8478L53.5468 6.50397L52.2495 2.77856H49.7891L52.2495 8.66215H54.8478L56.0783 5.72036L57.3083 8.66215H59.9065L62.3676 2.77856H59.9065L58.6055 6.50397Z" fill="white"/>
<path d="M62.5342 8.66215H69.0941V7.15188H64.7192V6.39887H69.0941V5.03741H64.7192V4.28446H69.0941V2.77856H62.5342V8.66215Z" fill="white"/>
<path d="M70.2578 2.77478V8.65843H72.4428V7.22254H74.3948L75.45 8.65843H77.777L76.555 7.00803C76.9221 6.82855 77.2182 6.55714 77.439 6.20256C77.6647 5.8436 77.777 5.44086 77.777 4.99866C77.794 3.78165 76.8134 2.76167 75.6587 2.77478H70.2578ZM75.1078 4.49526C75.3748 4.49526 75.5877 4.71851 75.5877 4.99866C75.5877 5.13436 75.5416 5.25258 75.4458 5.35325C75.3541 5.44961 75.2413 5.49775 75.1078 5.49775H72.4428V4.49526H75.1078Z" fill="white"/>
</svg>
