<svg width="180" height="34" viewBox="0 0 180 34" fill="none" xmlns="http://www.w3.org/2000/svg">
<path d="M71.3482 6.82666H67.5771V23.8425H78.0166V20.5083H71.3482V6.82666Z" fill="#4575D2"/>
<path d="M78.377 18.0703C78.377 21.7034 80.8144 24.1178 84.4934 24.1178C88.1495 24.1178 90.5869 21.7034 90.5869 18.0703C90.5869 14.4372 88.1495 11.9998 84.4934 11.9998C80.8144 11.9998 78.377 14.4372 78.377 18.0703ZM81.941 18.0473C81.941 16.3228 82.9528 15.173 84.4934 15.173C86.011 15.173 87.0228 16.3228 87.0228 18.0473C87.0228 19.7949 86.011 20.9446 84.4934 20.9446C82.9528 20.9446 81.941 19.7949 81.941 18.0473Z" fill="#4575D2"/>
<path d="M91.1563 17.8866C91.1563 21.3587 93.4099 23.7041 96.606 23.7041C98.1467 23.7041 99.4803 23.1523 100.147 22.2555V23.8421C100.147 25.4287 99.1584 26.4864 97.4108 26.4864C95.8472 26.4864 94.7664 25.7507 94.6975 24.44H91.1104C91.4323 27.5902 93.8697 29.7056 97.2039 29.7056C101.136 29.7056 103.619 27.1533 103.619 23.1063V12.345H100.423L100.239 13.5176C99.5953 12.5749 98.2386 11.9541 96.6751 11.9541C93.4558 11.9541 91.1563 14.3685 91.1563 17.8866ZM94.7435 17.7946C94.7435 16.139 95.8472 15.0353 97.2499 15.0353C98.8825 15.0353 100.078 16.116 100.078 17.7946C100.078 19.4732 98.9054 20.6229 97.2728 20.6229C95.8702 20.6229 94.7435 19.4732 94.7435 17.7946Z" fill="#4575D2"/>
<path d="M104.651 18.0703C104.651 21.7034 107.089 24.1178 110.768 24.1178C114.424 24.1178 116.862 21.7034 116.862 18.0703C116.862 14.4372 114.424 11.9998 110.768 11.9998C107.089 11.9998 104.651 14.4372 104.651 18.0703ZM108.215 18.0473C108.215 16.3228 109.227 15.173 110.768 15.173C112.285 15.173 113.297 16.3228 113.297 18.0473C113.297 19.7949 112.285 20.9446 110.768 20.9446C109.227 20.9446 108.215 19.7949 108.215 18.0473Z" fill="#4575D2"/>
<path d="M119.914 10.5513C121.017 10.5513 121.914 9.65457 121.914 8.52784C121.914 7.40112 121.017 6.52734 119.914 6.52734C118.788 6.52734 117.891 7.40112 117.891 8.52784C117.891 9.65457 118.788 10.5513 119.914 10.5513ZM118.12 23.8421H121.685V12.3449H118.12V23.8421Z" fill="#4575D2"/>
<path d="M123.76 29.361H127.255V22.6927C127.921 23.5664 129.439 24.1643 131.026 24.1643C134.451 24.1643 136.521 21.543 136.43 17.9098C136.337 14.2077 134.199 11.9773 131.003 11.9773C129.37 11.9773 127.83 12.6901 127.185 13.7479L127.001 12.3452H123.76V29.361ZM127.323 18.0937C127.323 16.3692 128.473 15.2195 130.129 15.2195C131.807 15.2195 132.865 16.3922 132.865 18.0937C132.865 19.7954 131.807 20.9681 130.129 20.9681C128.473 20.9681 127.323 19.8184 127.323 18.0937Z" fill="#4575D2"/>
<path d="M136.807 20.2092C136.898 22.5317 138.738 24.1412 141.636 24.1412C144.418 24.1412 146.35 22.6696 146.35 20.3012C146.35 18.5997 145.338 17.4729 143.452 17.013L141.406 16.5072C140.67 16.3232 140.21 16.1392 140.21 15.5414C140.21 14.9435 140.692 14.5526 141.406 14.5526C142.21 14.5526 142.739 15.0815 142.717 15.8633H145.913C145.82 13.4719 144.004 11.9773 141.475 11.9773C138.923 11.9773 137.014 13.4949 137.014 15.7943C137.014 17.3349 137.865 18.5997 140.141 19.1976L142.164 19.7263C142.762 19.8873 143.015 20.1632 143.015 20.5541C143.015 21.129 142.486 21.497 141.589 21.497C140.554 21.497 140.003 21.0141 140.003 20.2092H136.807Z" fill="#4575D2"/>
<path d="M151.769 24.1407C153.172 24.1407 154.575 23.4969 155.287 22.5541L155.518 23.8419H158.852V12.3447H155.311V18.3233C155.311 20.0478 154.805 20.9905 153.172 20.9905C151.907 20.9905 151.08 20.4157 151.08 18.2773V12.3447H147.538V19.5649C147.538 22.3013 149.056 24.1407 151.769 24.1407Z" fill="#4575D2"/>
<path d="M164.468 23.8421V17.5647C164.468 15.6331 165.503 15.0813 166.514 15.0813C167.641 15.0813 168.377 15.7711 168.377 17.1968V23.8421H171.872V17.5647C171.872 15.6102 172.884 15.0583 173.895 15.0583C175.022 15.0583 175.781 15.7481 175.781 17.1968V23.8421H179.231V16.323C179.231 13.7017 177.85 11.9541 174.884 11.9541C173.229 11.9541 171.872 12.7588 171.274 14.0005C170.584 12.7588 169.388 11.9541 167.48 11.9541C166.215 11.9541 165.043 12.5289 164.353 13.4487L164.215 12.345H160.903V23.8421H164.468Z" fill="#4575D2"/>
<path d="M0.201172 17.0549C0.201172 7.75222 7.74245 0.210938 17.0451 0.210938H39.1528C48.4555 0.210938 55.9967 7.75222 55.9967 17.0549V33.8988H17.0451C7.74245 33.8988 0.201172 26.3576 0.201172 17.0549Z" fill="#4575D2"/>
<path d="M39.1527 6.52734H17.045C11.2309 6.52734 6.51758 11.2406 6.51758 17.0548C6.51758 22.869 11.2309 27.5823 17.045 27.5823H39.1527C44.9668 27.5823 49.6801 22.869 49.6801 17.0548C49.6801 11.2406 44.9668 6.52734 39.1527 6.52734Z" fill="#A5B4FC"/>
<path d="M17.045 22.3185C19.9521 22.3185 22.3087 19.9618 22.3087 17.0547C22.3087 14.1477 19.9521 11.791 17.045 11.791C14.1379 11.791 11.7812 14.1477 11.7812 17.0547C11.7812 19.9618 14.1379 22.3185 17.045 22.3185Z" fill="black"/>
<path d="M14.9395 16.002C15.5209 16.002 15.9922 15.5306 15.9922 14.9492C15.9922 14.3678 15.5209 13.8965 14.9395 13.8965C14.358 13.8965 13.8867 14.3678 13.8867 14.9492C13.8867 15.5306 14.358 16.002 14.9395 16.002Z" fill="white"/>
<path d="M40.2051 22.3185C43.1122 22.3185 45.4689 19.9618 45.4689 17.0547C45.4689 14.1477 43.1122 11.791 40.2051 11.791C37.2981 11.791 34.9414 14.1477 34.9414 17.0547C34.9414 19.9618 37.2981 22.3185 40.2051 22.3185Z" fill="black"/>
<path d="M38.0996 16.002C38.681 16.002 39.1524 15.5306 39.1524 14.9492C39.1524 14.3678 38.681 13.8965 38.0996 13.8965C37.5182 13.8965 37.0469 14.3678 37.0469 14.9492C37.0469 15.5306 37.5182 16.002 38.0996 16.002Z" fill="white"/>
</svg>
