<svg width="181" height="43" viewBox="0 0 181 43" fill="none" xmlns="http://www.w3.org/2000/svg">
<path d="M52.2988 30.5298H64.2503V27.1266H55.9432V11.2358H52.2988V30.5298Z" fill="#74AFF5"/>
<path d="M71.4318 30.9314C72.879 30.9314 74.1518 30.6098 75.2505 29.9666C76.3581 29.3146 77.22 28.4169 77.8364 27.2736C78.4617 26.1213 78.7743 24.7948 78.7743 23.2942C78.7743 21.8025 78.4661 20.485 77.8498 19.3416C77.2334 18.1894 76.3714 17.2872 75.2638 16.6351C74.1652 15.983 72.8879 15.657 71.4318 15.657C70.0026 15.657 68.7387 15.9786 67.6401 16.6217C66.5414 17.2648 65.6794 18.1625 65.0541 19.3149C64.4289 20.4581 64.1162 21.7846 64.1162 23.2942C64.1162 24.7859 64.4199 26.1079 65.0274 27.2601C65.6436 28.4035 66.5012 29.3012 67.5999 29.9533C68.6986 30.6053 69.9759 30.9314 71.4318 30.9314ZM71.4318 27.5282C70.2974 27.5282 69.4355 27.1485 68.846 26.3893C68.2653 25.6211 67.9751 24.5894 67.9751 23.2942C67.9751 22.0347 68.2519 21.0164 68.8058 20.2393C69.3685 19.4533 70.2438 19.0602 71.4318 19.0602C72.5842 19.0602 73.4506 19.4443 74.0312 20.2125C74.6207 20.9807 74.9155 22.0079 74.9155 23.2942C74.9155 24.5358 74.6252 25.5541 74.0445 26.3491C73.4729 27.1351 72.602 27.5282 71.4318 27.5282Z" fill="#74AFF5"/>
<path d="M85.981 30.9314C86.6599 30.9314 87.2851 30.8509 87.8569 30.6902C88.4375 30.5294 88.9645 30.3016 89.4379 30.0069V31.4673C89.4558 32.0033 89.3173 32.4499 89.0225 32.8072C88.7367 33.1734 88.3526 33.4459 87.8703 33.6245C87.3879 33.8121 86.8743 33.9059 86.3295 33.9059C85.8202 33.9059 85.3468 33.7942 84.9092 33.5709C84.4804 33.3476 84.1499 33.0216 83.9176 32.5928L80.5413 34.2274C81.095 35.1653 81.8855 35.9201 82.9128 36.4918C83.94 37.0724 85.07 37.3627 86.3026 37.3627C87.3656 37.3627 88.3526 37.2197 89.2637 36.9339C90.1748 36.657 90.943 36.2328 91.5682 35.661C92.2024 35.0894 92.6357 34.3614 92.868 33.4771C92.9483 33.1645 93.0019 32.8474 93.0287 32.5258C93.0644 32.2132 93.0823 31.8782 93.0823 31.5209V16.0589H89.8934V16.8629C89.4021 16.4788 88.8438 16.184 88.2186 15.9786C87.6022 15.7642 86.919 15.657 86.1686 15.657C84.7841 15.657 83.5782 15.9875 82.5511 16.6485C81.5238 17.3095 80.7243 18.2161 80.1527 19.3684C79.5899 20.5117 79.3086 21.8204 79.3086 23.2942C79.3086 24.7412 79.5855 26.0408 80.1393 27.1932C80.702 28.3454 81.4836 29.2566 82.484 29.9265C83.4844 30.5964 84.6501 30.9314 85.981 30.9314ZM86.5705 27.6889C85.7846 27.6889 85.1414 27.4924 84.6412 27.0994C84.141 26.7064 83.7702 26.1794 83.5292 25.5184C83.288 24.8484 83.1673 24.1071 83.1673 23.2942C83.1673 22.4903 83.2924 21.7579 83.5425 21.0968C83.7927 20.4269 84.1767 19.8954 84.6948 19.5023C85.2218 19.1004 85.8917 18.8994 86.7046 18.8994C87.8479 18.8994 88.6652 19.3059 89.1565 20.1187C89.6478 20.9226 89.8934 21.9811 89.8934 23.2942C89.8934 24.6072 89.6433 25.6702 89.1431 26.483C88.6518 27.287 87.7944 27.6889 86.5705 27.6889Z" fill="#74AFF5"/>
<path d="M101.739 30.9314C103.186 30.9314 104.459 30.6098 105.558 29.9666C106.665 29.3146 107.527 28.4169 108.143 27.2736C108.768 26.1213 109.081 24.7948 109.081 23.2942C109.081 21.8025 108.774 20.485 108.157 19.3416C107.541 18.1894 106.679 17.2872 105.571 16.6351C104.472 15.983 103.195 15.657 101.739 15.657C100.31 15.657 99.0458 15.9786 97.9472 16.6217C96.8486 17.2648 95.9866 18.1625 95.3612 19.3149C94.736 20.4581 94.4233 21.7846 94.4233 23.2942C94.4233 24.7859 94.7271 26.1079 95.3345 27.2601C95.9508 28.4035 96.8083 29.3012 97.907 29.9533C99.0057 30.6053 100.283 30.9314 101.739 30.9314ZM101.739 27.5282C100.605 27.5282 99.7426 27.1485 99.153 26.3893C98.5724 25.6211 98.2822 24.5894 98.2822 23.2942C98.2822 22.0347 98.5591 21.0164 99.1129 20.2393C99.6756 19.4533 100.551 19.0602 101.739 19.0602C102.891 19.0602 103.758 19.4443 104.338 20.2125C104.928 20.9807 105.223 22.0079 105.223 23.2942C105.223 24.5358 104.932 25.5541 104.352 26.3491C103.78 27.1351 102.909 27.5282 101.739 27.5282Z" fill="#74AFF5"/>
<path d="M110.688 14.0494H114.332V10.8337H110.688V14.0494ZM110.688 30.5297H114.332V16.0591H110.688V30.5297Z" fill="#74AFF5"/>
<path d="M116.714 36.9608H120.385V30.0069C120.859 30.3016 121.381 30.5294 121.953 30.6902C122.534 30.8509 123.163 30.9314 123.843 30.9314C125.173 30.9314 126.34 30.5964 127.34 29.9265C128.34 29.2566 129.117 28.3454 129.67 27.1932C130.234 26.0408 130.515 24.7412 130.515 23.2942C130.515 21.8204 130.23 20.5117 129.658 19.3684C129.095 18.2161 128.3 17.3095 127.272 16.6485C126.245 15.9875 125.039 15.657 123.655 15.657C122.905 15.657 122.217 15.7642 121.592 15.9786C120.975 16.184 120.421 16.4788 119.93 16.8629V16.0589H116.714V36.9608ZM123.253 27.6889C122.038 27.6889 121.181 27.287 120.68 26.483C120.18 25.6702 119.93 24.6072 119.93 23.2942C119.93 21.9811 120.176 20.9226 120.667 20.1187C121.167 19.3059 121.984 18.8994 123.119 18.8994C123.932 18.8994 124.597 19.1004 125.115 19.5023C125.643 19.8954 126.031 20.4269 126.281 21.0968C126.531 21.7579 126.656 22.4902 126.656 23.2942C126.656 24.1071 126.535 24.8484 126.294 25.5184C126.053 26.1794 125.683 26.7064 125.183 27.0994C124.683 27.4924 124.039 27.6889 123.253 27.6889Z" fill="#74AFF5"/>
<path d="M137.118 30.9314C139.011 30.9314 140.494 30.5071 141.566 29.6585C142.637 28.8099 143.173 27.6443 143.173 26.1615C143.173 25.036 142.825 24.1473 142.129 23.4952C141.44 22.8431 140.271 22.3027 138.618 21.874C137.493 21.588 136.652 21.3558 136.099 21.1772C135.554 20.9986 135.192 20.8244 135.013 20.6547C134.844 20.485 134.76 20.2751 134.76 20.0249C134.76 19.6051 134.96 19.2836 135.362 19.0602C135.773 18.8369 136.313 18.7476 136.983 18.7923C138.403 18.8994 139.181 19.5069 139.315 20.6145L143.039 19.9445C142.852 18.6315 142.209 17.5909 141.11 16.8227C140.012 16.0456 138.61 15.657 136.903 15.657C135.152 15.657 133.754 16.0679 132.709 16.8896C131.665 17.7114 131.141 18.819 131.141 20.2125C131.141 21.3201 131.503 22.1955 132.227 22.8386C132.95 23.4729 134.196 24.0177 135.965 24.4733C137.01 24.7502 137.778 24.9735 138.269 25.1432C138.77 25.3129 139.092 25.4871 139.234 25.6658C139.377 25.8355 139.449 26.0633 139.449 26.3491C139.449 26.8046 139.27 27.1619 138.913 27.421C138.556 27.671 138.046 27.7961 137.385 27.7961C136.581 27.7961 135.916 27.6041 135.389 27.2199C134.871 26.8359 134.535 26.3045 134.384 25.6255L130.659 26.1882C130.9 27.6979 131.579 28.868 132.696 29.6987C133.822 30.5205 135.295 30.9314 137.118 30.9314Z" fill="#74AFF5"/>
<path d="M149.896 30.9581C150.941 30.9581 151.852 30.7839 152.63 30.4356C153.407 30.0872 154.059 29.6227 154.586 29.0421V30.5294H157.801V16.0588H154.13V23.4013C154.13 24.2946 154.027 25.018 153.822 25.5719C153.626 26.1168 153.371 26.5321 153.058 26.8179C152.746 27.0949 152.411 27.2824 152.053 27.3807C151.696 27.4789 151.361 27.5281 151.049 27.5281C150.272 27.5281 149.669 27.3539 149.24 27.0055C148.82 26.6571 148.516 26.2239 148.328 25.7059C148.141 25.1877 148.029 24.6742 147.994 24.165C147.958 23.6469 147.94 23.2227 147.94 22.8921V16.0588H144.242V24.1785C144.242 24.4195 144.26 24.8037 144.295 25.3307C144.331 25.8577 144.434 26.4428 144.604 27.0859C144.773 27.7201 145.054 28.332 145.448 28.9215C145.85 29.511 146.408 29.9978 147.123 30.382C147.837 30.766 148.762 30.9581 149.896 30.9581Z" fill="#74AFF5"/>
<path d="M159.912 30.5296H163.583V21.7668C163.583 20.9362 163.81 20.2618 164.266 19.7437C164.73 19.2167 165.342 18.9531 166.102 18.9531C166.897 18.9531 167.518 19.2212 167.964 19.7571C168.419 20.2841 168.647 21.0255 168.647 21.9813V30.5296H172.292V21.7668C172.292 20.9362 172.519 20.2618 172.975 19.7437C173.439 19.2167 174.051 18.9531 174.81 18.9531C175.606 18.9531 176.226 19.2212 176.672 19.7571C177.128 20.2841 177.357 21.0255 177.357 21.9813V30.5296H181V21.0165C181 19.4355 180.576 18.1582 179.727 17.1845C178.888 16.202 177.642 15.7107 175.989 15.7107C175.061 15.7107 174.208 15.9117 173.43 16.3136C172.653 16.7156 172.033 17.265 171.568 17.9617C171.193 17.2829 170.657 16.738 169.96 16.3271C169.263 15.9162 168.397 15.7107 167.361 15.7107C166.485 15.7107 165.682 15.8849 164.949 16.2333C164.216 16.5727 163.609 17.0417 163.127 17.6401V16.059H159.912V30.5296Z" fill="#74AFF5"/>
<path d="M21.7307 0C10.1024 0 0.675781 9.4266 0.675781 21.0549C12.3041 21.0549 21.7307 11.6283 21.7307 0Z" fill="#45D2B0"/>
<path d="M21.7305 42.1096C33.3588 42.1096 42.7854 32.683 42.7854 21.0547C31.1571 21.0547 21.7305 30.4813 21.7305 42.1096Z" fill="#45D2B0"/>
<path d="M21.7305 0C33.3588 0 42.7854 9.4266 42.7854 21.0549C31.1571 21.0549 21.7305 11.6283 21.7305 0Z" fill="#74AFF5"/>
<path d="M21.7307 42.1096C10.1024 42.1096 0.67578 32.683 0.675781 21.0547C12.3041 21.0547 21.7307 30.4813 21.7307 42.1096Z" fill="#74AFF5"/>
</svg>
