<svg width="67" height="43" viewBox="0 0 67 43" fill="none" xmlns="http://www.w3.org/2000/svg">
<path d="M43.257 21.3066C43.257 33.074 33.7176 42.6134 21.9503 42.6134C10.183 42.6134 0.643555 33.074 0.643555 21.3066C0.643555 9.53924 10.183 -0.00012207 21.9503 -0.00012207C33.7176 -0.00012207 43.257 9.53924 43.257 21.3066Z" fill="#68DBFF"/>
<path d="M66.2349 21.3065C66.2349 33.0739 56.7889 42.6133 45.1369 42.6133C33.485 42.6133 24.0391 33.0739 24.0391 21.3065C24.0391 9.53912 33.485 -0.000244141 45.1369 -0.000244141C56.7889 -0.000244141 66.2349 9.53912 66.2349 21.3065Z" fill="#FF7917"/>
<path d="M33.6006 39.149C39.4153 35.3444 43.2569 28.7742 43.2569 21.3067C43.2569 13.8393 39.4153 7.26895 33.6006 3.46442C27.8429 7.26895 24.0391 13.8393 24.0391 21.3067C24.0391 28.7742 27.8429 35.3444 33.6006 39.149Z" fill="#5D2C02"/>
</svg>
