<svg width="160" height="72" viewBox="0 0 160 72" fill="none" xmlns="http://www.w3.org/2000/svg">
<ellipse cx="35.7423" cy="35.7423" rx="35.7423" ry="35.7423" fill="url(#paint0_radial_433_413)"/>
<mask id="mask0_433_413" style="mask-type:alpha" maskUnits="userSpaceOnUse" x="0" y="0" width="72" height="72">
<ellipse cx="35.7423" cy="35.7423" rx="35.7423" ry="35.7423" fill="url(#paint1_radial_433_413)"/>
</mask>
<g mask="url(#mask0_433_413)">
<mask id="path-3-outside-1_433_413" maskUnits="userSpaceOnUse" x="14" y="22" width="137" height="33" fill="black">
<rect fill="white" x="14" y="22" width="137" height="33"/>
<path d="M25.4146 47.2547C23.9715 47.2547 22.7089 46.9363 21.6266 46.2997C20.5443 45.663 19.6954 44.6975 19.08 43.4029C18.4858 42.0872 18.1887 40.4319 18.1887 38.4371C18.1887 36.4211 18.4752 34.7658 19.0481 33.4713C19.6211 32.1768 20.4488 31.2112 21.5311 30.5745C22.6134 29.9379 23.9079 29.6196 25.4146 29.6196C27.0274 29.6196 28.4705 29.9909 29.7438 30.7337C31.0383 31.4552 32.0569 32.4739 32.7997 33.7896C33.5637 35.1053 33.9457 36.6545 33.9457 38.4371C33.9457 40.2409 33.5637 41.8007 32.7997 43.1165C32.0569 44.4322 31.0383 45.4508 29.7438 46.1724C28.4705 46.8939 27.0274 47.2547 25.4146 47.2547ZM15.2919 53.1755V29.8742H20.0349V33.3758L19.9394 38.4689L20.2578 43.5303V53.1755H15.2919ZM24.5551 43.1801C25.3828 43.1801 26.1149 42.9891 26.7516 42.6071C27.4094 42.2252 27.9294 41.684 28.3113 40.9837C28.7146 40.2622 28.9162 39.4133 28.9162 38.4371C28.9162 37.4397 28.7146 36.5908 28.3113 35.8905C27.9294 35.1902 27.4094 34.6491 26.7516 34.2671C26.1149 33.8851 25.3828 33.6941 24.5551 33.6941C23.7275 33.6941 22.9847 33.8851 22.3269 34.2671C21.669 34.6491 21.1491 35.1902 20.7671 35.8905C20.3851 36.5908 20.1941 37.4397 20.1941 38.4371C20.1941 39.4133 20.3851 40.2622 20.7671 40.9837C21.1491 41.684 21.669 42.2252 22.3269 42.6071C22.9847 42.9891 23.7275 43.1801 24.5551 43.1801ZM47.4948 47V43.6576L47.1765 42.9255V36.941C47.1765 35.8799 46.8475 35.0523 46.1897 34.4581C45.553 33.8639 44.5662 33.5668 43.2293 33.5668C42.3167 33.5668 41.4148 33.7153 40.5235 34.0124C39.6534 34.2883 38.9107 34.6703 38.2953 35.1584L36.5126 31.6887C37.4464 31.0308 38.5711 30.5215 39.8869 30.1607C41.2026 29.7999 42.5396 29.6196 43.8977 29.6196C46.508 29.6196 48.5346 30.235 49.9777 31.4658C51.4208 32.6967 52.1423 34.6172 52.1423 37.2275V47H47.4948ZM42.2743 47.2547C40.9373 47.2547 39.7914 47.0318 38.8364 46.5862C37.8814 46.1193 37.1493 45.4933 36.64 44.7081C36.1307 43.9229 35.876 43.0422 35.876 42.066C35.876 41.0474 36.12 40.1561 36.6081 39.3921C37.1175 38.6281 37.9133 38.0339 38.9956 37.6095C40.0779 37.1638 41.4891 36.941 43.2293 36.941H47.7813V39.8377H43.7704C42.6032 39.8377 41.7968 40.0287 41.3512 40.4107C40.9267 40.7927 40.7145 41.2702 40.7145 41.8432C40.7145 42.4798 40.9586 42.9891 41.4467 43.3711C41.956 43.7319 42.6457 43.9123 43.5158 43.9123C44.3434 43.9123 45.0861 43.7213 45.744 43.3393C46.4019 42.9361 46.8794 42.3525 47.1765 41.5885L47.9404 43.8804C47.5797 44.984 46.9218 45.8222 45.9668 46.3952C45.0119 46.9682 43.781 47.2547 42.2743 47.2547ZM58.4904 53.4301C57.5991 53.4301 56.7184 53.2922 55.8483 53.0163C54.9782 52.7404 54.2673 52.3584 53.7155 51.8703L55.53 48.337C55.912 48.6765 56.347 48.9418 56.8351 49.1328C57.3444 49.3238 57.8431 49.4193 58.3312 49.4193C59.0315 49.4193 59.5833 49.2495 59.9865 48.9099C60.4109 48.5916 60.7929 48.0505 61.1325 47.2865L62.0238 45.1856L62.4057 44.6444L68.5494 29.8742H73.3242L65.589 48.0505C65.0372 49.4299 64.4006 50.5122 63.679 51.2974C62.9787 52.0826 62.1935 52.6343 61.3234 52.9526C60.4746 53.271 59.5302 53.4301 58.4904 53.4301ZM61.4189 47.6685L53.7792 29.8742H58.9042L64.825 44.1988L61.4189 47.6685ZM75.7007 47V24.7174H85.3459C87.3407 24.7174 89.0597 25.0463 90.5027 25.7042C91.9458 26.3408 93.0599 27.264 93.8451 28.4736C94.6303 29.6832 95.0229 31.1263 95.0229 32.8028C95.0229 34.4581 94.6303 35.8905 93.8451 37.1001C93.0599 38.3098 91.9458 39.2435 90.5027 39.9014C89.0597 40.538 87.3407 40.8564 85.3459 40.8564H78.5656L80.8575 38.5326V47H75.7007ZM80.8575 39.1056L78.5656 36.6545H85.0594C86.651 36.6545 87.8394 36.315 88.6246 35.6359C89.4098 34.9568 89.8024 34.0124 89.8024 32.8028C89.8024 31.5719 89.4098 30.617 88.6246 29.9379C87.8394 29.2588 86.651 28.9192 85.0594 28.9192H78.5656L80.8575 26.4682V39.1056ZM108.704 47V43.6576L108.385 42.9255V36.941C108.385 35.8799 108.056 35.0523 107.398 34.4581C106.762 33.8639 105.775 33.5668 104.438 33.5668C103.526 33.5668 102.624 33.7153 101.732 34.0124C100.862 34.2883 100.119 34.6703 99.5041 35.1584L97.7215 31.6887C98.6552 31.0308 99.78 30.5215 101.096 30.1607C102.411 29.7999 103.748 29.6196 105.107 29.6196C107.717 29.6196 109.743 30.235 111.187 31.4658C112.63 32.6967 113.351 34.6172 113.351 37.2275V47H108.704ZM103.483 47.2547C102.146 47.2547 101 47.0318 100.045 46.5862C99.0903 46.1193 98.3581 45.4933 97.8488 44.7081C97.3395 43.9229 97.0848 43.0422 97.0848 42.066C97.0848 41.0474 97.3289 40.1561 97.817 39.3921C98.3263 38.6281 99.1221 38.0339 100.204 37.6095C101.287 37.1638 102.698 36.941 104.438 36.941H108.99V39.8377H104.979C103.812 39.8377 103.006 40.0287 102.56 40.4107C102.136 40.7927 101.923 41.2702 101.923 41.8432C101.923 42.4798 102.167 42.9891 102.655 43.3711C103.165 43.7319 103.854 43.9123 104.725 43.9123C105.552 43.9123 106.295 43.7213 106.953 43.3393C107.611 42.9361 108.088 42.3525 108.385 41.5885L109.149 43.8804C108.788 44.984 108.131 45.8222 107.176 46.3952C106.221 46.9682 104.99 47.2547 103.483 47.2547ZM124.849 47.2547C122.833 47.2547 121.262 46.7453 120.137 45.7267C119.013 44.6869 118.45 43.1483 118.45 41.111V26.0862H123.416V41.0474C123.416 41.7689 123.607 42.3313 123.989 42.7345C124.371 43.1165 124.891 43.3075 125.549 43.3075C126.334 43.3075 127.003 43.0952 127.554 42.6708L128.891 46.1724C128.382 46.5331 127.767 46.809 127.045 47C126.345 47.1698 125.613 47.2547 124.849 47.2547ZM115.808 34.0761V30.2562H127.682V34.0761H115.808ZM142.088 29.6196C143.446 29.6196 144.656 29.8954 145.717 30.4472C146.799 30.9777 147.648 31.8054 148.263 32.9301C148.879 34.0336 149.187 35.4555 149.187 37.1956V47H144.221V37.9596C144.221 36.5802 143.913 35.5616 143.298 34.9037C142.703 34.2459 141.855 33.9169 140.751 33.9169C139.966 33.9169 139.255 34.0867 138.618 34.4262C138.003 34.7446 137.515 35.2433 137.154 35.9224C136.814 36.6014 136.645 37.4715 136.645 38.5326V47H131.679V23.3804H136.645V34.6172L135.531 33.1848C136.146 32.0388 137.027 31.1581 138.173 30.5427C139.319 29.9273 140.624 29.6196 142.088 29.6196Z"/>
</mask>
<path d="M25.4146 47.2547C23.9715 47.2547 22.7089 46.9363 21.6266 46.2997C20.5443 45.663 19.6954 44.6975 19.08 43.4029C18.4858 42.0872 18.1887 40.4319 18.1887 38.4371C18.1887 36.4211 18.4752 34.7658 19.0481 33.4713C19.6211 32.1768 20.4488 31.2112 21.5311 30.5745C22.6134 29.9379 23.9079 29.6196 25.4146 29.6196C27.0274 29.6196 28.4705 29.9909 29.7438 30.7337C31.0383 31.4552 32.0569 32.4739 32.7997 33.7896C33.5637 35.1053 33.9457 36.6545 33.9457 38.4371C33.9457 40.2409 33.5637 41.8007 32.7997 43.1165C32.0569 44.4322 31.0383 45.4508 29.7438 46.1724C28.4705 46.8939 27.0274 47.2547 25.4146 47.2547ZM15.2919 53.1755V29.8742H20.0349V33.3758L19.9394 38.4689L20.2578 43.5303V53.1755H15.2919ZM24.5551 43.1801C25.3828 43.1801 26.1149 42.9891 26.7516 42.6071C27.4094 42.2252 27.9294 41.684 28.3113 40.9837C28.7146 40.2622 28.9162 39.4133 28.9162 38.4371C28.9162 37.4397 28.7146 36.5908 28.3113 35.8905C27.9294 35.1902 27.4094 34.6491 26.7516 34.2671C26.1149 33.8851 25.3828 33.6941 24.5551 33.6941C23.7275 33.6941 22.9847 33.8851 22.3269 34.2671C21.669 34.6491 21.1491 35.1902 20.7671 35.8905C20.3851 36.5908 20.1941 37.4397 20.1941 38.4371C20.1941 39.4133 20.3851 40.2622 20.7671 40.9837C21.1491 41.684 21.669 42.2252 22.3269 42.6071C22.9847 42.9891 23.7275 43.1801 24.5551 43.1801ZM47.4948 47V43.6576L47.1765 42.9255V36.941C47.1765 35.8799 46.8475 35.0523 46.1897 34.4581C45.553 33.8639 44.5662 33.5668 43.2293 33.5668C42.3167 33.5668 41.4148 33.7153 40.5235 34.0124C39.6534 34.2883 38.9107 34.6703 38.2953 35.1584L36.5126 31.6887C37.4464 31.0308 38.5711 30.5215 39.8869 30.1607C41.2026 29.7999 42.5396 29.6196 43.8977 29.6196C46.508 29.6196 48.5346 30.235 49.9777 31.4658C51.4208 32.6967 52.1423 34.6172 52.1423 37.2275V47H47.4948ZM42.2743 47.2547C40.9373 47.2547 39.7914 47.0318 38.8364 46.5862C37.8814 46.1193 37.1493 45.4933 36.64 44.7081C36.1307 43.9229 35.876 43.0422 35.876 42.066C35.876 41.0474 36.12 40.1561 36.6081 39.3921C37.1175 38.6281 37.9133 38.0339 38.9956 37.6095C40.0779 37.1638 41.4891 36.941 43.2293 36.941H47.7813V39.8377H43.7704C42.6032 39.8377 41.7968 40.0287 41.3512 40.4107C40.9267 40.7927 40.7145 41.2702 40.7145 41.8432C40.7145 42.4798 40.9586 42.9891 41.4467 43.3711C41.956 43.7319 42.6457 43.9123 43.5158 43.9123C44.3434 43.9123 45.0861 43.7213 45.744 43.3393C46.4019 42.9361 46.8794 42.3525 47.1765 41.5885L47.9404 43.8804C47.5797 44.984 46.9218 45.8222 45.9668 46.3952C45.0119 46.9682 43.781 47.2547 42.2743 47.2547ZM58.4904 53.4301C57.5991 53.4301 56.7184 53.2922 55.8483 53.0163C54.9782 52.7404 54.2673 52.3584 53.7155 51.8703L55.53 48.337C55.912 48.6765 56.347 48.9418 56.8351 49.1328C57.3444 49.3238 57.8431 49.4193 58.3312 49.4193C59.0315 49.4193 59.5833 49.2495 59.9865 48.9099C60.4109 48.5916 60.7929 48.0505 61.1325 47.2865L62.0238 45.1856L62.4057 44.6444L68.5494 29.8742H73.3242L65.589 48.0505C65.0372 49.4299 64.4006 50.5122 63.679 51.2974C62.9787 52.0826 62.1935 52.6343 61.3234 52.9526C60.4746 53.271 59.5302 53.4301 58.4904 53.4301ZM61.4189 47.6685L53.7792 29.8742H58.9042L64.825 44.1988L61.4189 47.6685ZM75.7007 47V24.7174H85.3459C87.3407 24.7174 89.0597 25.0463 90.5027 25.7042C91.9458 26.3408 93.0599 27.264 93.8451 28.4736C94.6303 29.6832 95.0229 31.1263 95.0229 32.8028C95.0229 34.4581 94.6303 35.8905 93.8451 37.1001C93.0599 38.3098 91.9458 39.2435 90.5027 39.9014C89.0597 40.538 87.3407 40.8564 85.3459 40.8564H78.5656L80.8575 38.5326V47H75.7007ZM80.8575 39.1056L78.5656 36.6545H85.0594C86.651 36.6545 87.8394 36.315 88.6246 35.6359C89.4098 34.9568 89.8024 34.0124 89.8024 32.8028C89.8024 31.5719 89.4098 30.617 88.6246 29.9379C87.8394 29.2588 86.651 28.9192 85.0594 28.9192H78.5656L80.8575 26.4682V39.1056ZM108.704 47V43.6576L108.385 42.9255V36.941C108.385 35.8799 108.056 35.0523 107.398 34.4581C106.762 33.8639 105.775 33.5668 104.438 33.5668C103.526 33.5668 102.624 33.7153 101.732 34.0124C100.862 34.2883 100.119 34.6703 99.5041 35.1584L97.7215 31.6887C98.6552 31.0308 99.78 30.5215 101.096 30.1607C102.411 29.7999 103.748 29.6196 105.107 29.6196C107.717 29.6196 109.743 30.235 111.187 31.4658C112.63 32.6967 113.351 34.6172 113.351 37.2275V47H108.704ZM103.483 47.2547C102.146 47.2547 101 47.0318 100.045 46.5862C99.0903 46.1193 98.3581 45.4933 97.8488 44.7081C97.3395 43.9229 97.0848 43.0422 97.0848 42.066C97.0848 41.0474 97.3289 40.1561 97.817 39.3921C98.3263 38.6281 99.1221 38.0339 100.204 37.6095C101.287 37.1638 102.698 36.941 104.438 36.941H108.99V39.8377H104.979C103.812 39.8377 103.006 40.0287 102.56 40.4107C102.136 40.7927 101.923 41.2702 101.923 41.8432C101.923 42.4798 102.167 42.9891 102.655 43.3711C103.165 43.7319 103.854 43.9123 104.725 43.9123C105.552 43.9123 106.295 43.7213 106.953 43.3393C107.611 42.9361 108.088 42.3525 108.385 41.5885L109.149 43.8804C108.788 44.984 108.131 45.8222 107.176 46.3952C106.221 46.9682 104.99 47.2547 103.483 47.2547ZM124.849 47.2547C122.833 47.2547 121.262 46.7453 120.137 45.7267C119.013 44.6869 118.45 43.1483 118.45 41.111V26.0862H123.416V41.0474C123.416 41.7689 123.607 42.3313 123.989 42.7345C124.371 43.1165 124.891 43.3075 125.549 43.3075C126.334 43.3075 127.003 43.0952 127.554 42.6708L128.891 46.1724C128.382 46.5331 127.767 46.809 127.045 47C126.345 47.1698 125.613 47.2547 124.849 47.2547ZM115.808 34.0761V30.2562H127.682V34.0761H115.808ZM142.088 29.6196C143.446 29.6196 144.656 29.8954 145.717 30.4472C146.799 30.9777 147.648 31.8054 148.263 32.9301C148.879 34.0336 149.187 35.4555 149.187 37.1956V47H144.221V37.9596C144.221 36.5802 143.913 35.5616 143.298 34.9037C142.703 34.2459 141.855 33.9169 140.751 33.9169C139.966 33.9169 139.255 34.0867 138.618 34.4262C138.003 34.7446 137.515 35.2433 137.154 35.9224C136.814 36.6014 136.645 37.4715 136.645 38.5326V47H131.679V23.3804H136.645V34.6172L135.531 33.1848C136.146 32.0388 137.027 31.1581 138.173 30.5427C139.319 29.9273 140.624 29.6196 142.088 29.6196Z" fill="white"/>
<path d="M21.6266 46.2997L22.1336 45.4378L21.6266 46.2997ZM19.08 43.4029L18.1686 43.8145C18.1713 43.8205 18.174 43.8264 18.1768 43.8323L19.08 43.4029ZM19.0481 33.4713L19.9626 33.876V33.876L19.0481 33.4713ZM21.5311 30.5745L21.024 29.7126L21.5311 30.5745ZM29.7438 30.7337L29.2399 31.5975C29.2456 31.6008 29.2512 31.604 29.2569 31.6072L29.7438 30.7337ZM32.7997 33.7896L31.9288 34.2812L31.9349 34.2917L32.7997 33.7896ZM32.7997 43.1165L31.9349 42.6143L31.9289 42.6249L32.7997 43.1165ZM29.7438 46.1724L29.2569 45.2989L29.2508 45.3023L29.7438 46.1724ZM15.2919 53.1755H14.2919C14.2919 53.7278 14.7396 54.1755 15.2919 54.1755V53.1755ZM15.2919 29.8742V28.8742C14.7396 28.8742 14.2919 29.3219 14.2919 29.8742H15.2919ZM20.0349 29.8742H21.0349C21.0349 29.3219 20.5872 28.8742 20.0349 28.8742V29.8742ZM20.0349 33.3758L21.0348 33.3945C21.0349 33.3883 21.0349 33.382 21.0349 33.3758H20.0349ZM19.9394 38.4689L18.9396 38.4502C18.9391 38.4774 18.9397 38.5046 18.9414 38.5317L19.9394 38.4689ZM20.2578 43.5303H21.2578C21.2578 43.5093 21.2571 43.4884 21.2558 43.4675L20.2578 43.5303ZM20.2578 53.1755V54.1755C20.8101 54.1755 21.2578 53.7278 21.2578 53.1755H20.2578ZM26.7516 42.6071L26.2494 41.7424C26.2453 41.7448 26.2412 41.7472 26.2371 41.7496L26.7516 42.6071ZM28.3113 40.9837L27.4384 40.4958L27.4335 40.5048L28.3113 40.9837ZM28.3113 35.8905L27.4334 36.3694C27.4371 36.3761 27.4409 36.3828 27.4447 36.3895L28.3113 35.8905ZM26.7516 34.2671L26.2371 35.1246C26.2412 35.127 26.2453 35.1295 26.2494 35.1319L26.7516 34.2671ZM22.3269 34.2671L22.829 35.1319L22.829 35.1319L22.3269 34.2671ZM20.7671 35.8905L21.645 36.3694L20.7671 35.8905ZM20.7671 40.9837L19.8832 41.4516L19.8892 41.4625L20.7671 40.9837ZM22.3269 42.6071L22.829 41.7424L22.3269 42.6071ZM25.4146 46.2547C24.1228 46.2547 23.0405 45.9712 22.1336 45.4378L21.1195 47.1616C22.3773 47.9015 23.8203 48.2547 25.4146 48.2547V46.2547ZM22.1336 45.4378C21.2471 44.9163 20.5252 44.1139 19.9831 42.9736L18.1768 43.8323C18.8656 45.281 19.8414 46.4098 21.1195 47.1616L22.1336 45.4378ZM19.9913 42.9914C19.4734 41.8444 19.1887 40.3408 19.1887 38.4371H17.1887C17.1887 40.523 17.4982 42.33 18.1686 43.8145L19.9913 42.9914ZM19.1887 38.4371C19.1887 36.5057 19.4646 35.001 19.9626 33.876L18.1337 33.0665C17.4857 34.5305 17.1887 36.3364 17.1887 38.4371H19.1887ZM19.9626 33.876C20.4621 32.7473 21.1586 31.9538 22.0381 31.4365L21.024 29.7126C19.7389 30.4685 18.7801 31.6062 18.1337 33.0665L19.9626 33.876ZM22.0381 31.4365C22.9386 30.9068 24.0504 30.6196 25.4146 30.6196V28.6196C23.7653 28.6196 22.2881 28.969 21.024 29.7126L22.0381 31.4365ZM25.4146 30.6196C26.8675 30.6196 28.1337 30.9522 29.2399 31.5975L30.2477 29.8699C28.8073 29.0297 27.1873 28.6196 25.4146 28.6196V30.6196ZM29.2569 31.6072C30.3875 32.2373 31.2747 33.1223 31.9289 34.2812L33.6705 33.298C32.8392 31.8254 31.6891 30.6731 30.2307 29.8602L29.2569 31.6072ZM31.9349 34.2917C32.5962 35.4305 32.9457 36.8003 32.9457 38.4371H34.9457C34.9457 36.5087 34.5312 34.7801 33.6645 33.2875L31.9349 34.2917ZM32.9457 38.4371C32.9457 40.0975 32.5951 41.4773 31.9349 42.6143L33.6645 43.6186C34.5322 42.1242 34.9457 40.3844 34.9457 38.4371H32.9457ZM31.9289 42.6249C31.2747 43.7837 30.3875 44.6687 29.2569 45.2989L30.2307 47.0458C31.6891 46.2329 32.8392 45.0807 33.6705 43.6081L31.9289 42.6249ZM29.2508 45.3023C28.1428 45.9302 26.8727 46.2547 25.4146 46.2547V48.2547C27.1822 48.2547 28.7982 47.8576 30.2368 47.0424L29.2508 45.3023ZM16.2919 53.1755V29.8742H14.2919V53.1755H16.2919ZM15.2919 30.8742H20.0349V28.8742H15.2919V30.8742ZM19.0349 29.8742V33.3758H21.0349V29.8742H19.0349ZM19.0351 33.357L18.9396 38.4502L20.9393 38.4877L21.0348 33.3945L19.0351 33.357ZM18.9414 38.5317L19.2597 43.593L21.2558 43.4675L20.9375 38.4062L18.9414 38.5317ZM19.2578 43.5303V53.1755H21.2578V43.5303H19.2578ZM20.2578 52.1755H15.2919V54.1755H20.2578V52.1755ZM24.5551 44.1801C25.5427 44.1801 26.4567 43.9503 27.2661 43.4646L26.2371 41.7496C25.7732 42.028 25.2229 42.1801 24.5551 42.1801V44.1801ZM27.2537 43.4719C28.0776 42.9935 28.7241 42.3153 29.1892 41.4625L27.4335 40.5048C27.1346 41.0527 26.7412 41.4568 26.2494 41.7424L27.2537 43.4719ZM29.1843 41.4715C29.6847 40.576 29.9162 39.5531 29.9162 38.4371H27.9162C27.9162 39.2735 27.7444 39.9483 27.4384 40.4959L29.1843 41.4715ZM29.9162 38.4371C29.9162 37.3053 29.6868 36.2754 29.178 35.3916L27.4447 36.3895C27.7423 36.9063 27.9162 37.5741 27.9162 38.4371H29.9162ZM29.1892 35.4117C28.7241 34.5589 28.0776 33.8807 27.2537 33.4023L26.2494 35.1319C26.7412 35.4174 27.1346 35.8215 27.4334 36.3694L29.1892 35.4117ZM27.2661 33.4096C26.4567 32.9239 25.5427 32.6941 24.5551 32.6941V34.6941C25.2229 34.6941 25.7732 34.8462 26.2371 35.1246L27.2661 33.4096ZM24.5551 32.6941C23.5671 32.6941 22.6484 32.924 21.8247 33.4023L22.829 35.1319C23.3211 34.8461 23.8879 34.6941 24.5551 34.6941V32.6941ZM21.8247 33.4023C21.0008 33.8807 20.3543 34.5589 19.8892 35.4117L21.645 36.3694C21.9438 35.8215 22.3372 35.4174 22.829 35.1319L21.8247 33.4023ZM19.8892 35.4117C19.4094 36.2912 19.1941 37.3136 19.1941 38.4371H21.1941C21.1941 37.5658 21.3608 36.8904 21.645 36.3694L19.8892 35.4117ZM19.1941 38.4371C19.1941 39.5446 19.4114 40.5602 19.8833 41.4516L21.6509 40.5158C21.3588 39.9641 21.1941 39.282 21.1941 38.4371H19.1941ZM19.8892 41.4625C20.3543 42.3153 21.0008 42.9935 21.8247 43.4719L22.829 41.7424C22.3372 41.4568 21.9438 41.0527 21.645 40.5048L19.8892 41.4625ZM21.8247 43.4719C22.6484 43.9502 23.5671 44.1801 24.5551 44.1801V42.1801C23.8879 42.1801 23.3211 42.0281 22.829 41.7424L21.8247 43.4719ZM47.4948 47H46.4948C46.4948 47.5523 46.9425 48 47.4948 48V47ZM47.4948 43.6576H48.4948C48.4948 43.5204 48.4666 43.3847 48.4119 43.2589L47.4948 43.6576ZM47.1765 42.9255H46.1765C46.1765 43.0627 46.2047 43.1984 46.2594 43.3242L47.1765 42.9255ZM46.1897 34.4581L45.5074 35.1891C45.5113 35.1928 45.5153 35.1965 45.5194 35.2002L46.1897 34.4581ZM40.5235 34.0124L40.8258 34.9656C40.8304 34.9642 40.8351 34.9626 40.8397 34.9611L40.5235 34.0124ZM38.2953 35.1584L37.4058 35.6154C37.5426 35.8816 37.7914 36.0726 38.084 36.1358C38.3766 36.199 38.6821 36.1279 38.9166 35.9419L38.2953 35.1584ZM36.5126 31.6887L35.9367 30.8712C35.529 31.1584 35.3953 31.7021 35.6232 32.1456L36.5126 31.6887ZM39.8869 30.1607L39.6224 29.1963L39.8869 30.1607ZM49.9777 31.4658L50.6267 30.705L49.9777 31.4658ZM52.1423 47V48C52.6946 48 53.1423 47.5523 53.1423 47H52.1423ZM38.8364 46.5862L38.3972 47.4846C38.4026 47.4872 38.4081 47.4898 38.4135 47.4924L38.8364 46.5862ZM36.64 44.7081L37.4789 44.1639L36.64 44.7081ZM36.6081 39.3921L35.7761 38.8374C35.7725 38.8428 35.7689 38.8482 35.7654 38.8537L36.6081 39.3921ZM38.9956 37.6095L39.3607 38.5404C39.3659 38.5384 39.3711 38.5363 39.3763 38.5341L38.9956 37.6095ZM47.7813 36.941H48.7813C48.7813 36.3887 48.3336 35.941 47.7813 35.941V36.941ZM47.7813 39.8377V40.8377C48.3336 40.8377 48.7813 40.39 48.7813 39.8377H47.7813ZM41.3512 40.4107L40.7004 39.6515C40.6942 39.6567 40.6882 39.662 40.6822 39.6674L41.3512 40.4107ZM41.4467 43.3711L40.8303 44.1586C40.8429 44.1684 40.8556 44.1779 40.8686 44.1871L41.4467 43.3711ZM45.744 43.3393L46.2462 44.2041C46.253 44.2001 46.2598 44.196 46.2666 44.1919L45.744 43.3393ZM47.1765 41.5885L48.1252 41.2723C47.9919 40.8725 47.6223 40.5992 47.201 40.5888C46.7798 40.5785 46.3972 40.8333 46.2445 41.2261L47.1765 41.5885ZM47.9404 43.8804L48.8909 44.1912C48.9576 43.9874 48.9569 43.7676 48.8891 43.5642L47.9404 43.8804ZM45.9668 46.3952L45.4523 45.5377H45.4523L45.9668 46.3952ZM48.4948 47V43.6576H46.4948V47H48.4948ZM48.4119 43.2589L48.0935 42.5267L46.2594 43.3242L46.5777 44.0563L48.4119 43.2589ZM48.1765 42.9255V36.941H46.1765V42.9255H48.1765ZM48.1765 36.941C48.1765 35.6577 47.7689 34.5369 46.86 33.716L45.5194 35.2002C45.9262 35.5676 46.1765 36.1021 46.1765 36.941H48.1765ZM46.872 33.727C45.9724 32.8874 44.6881 32.5668 43.2293 32.5668V34.5668C44.4443 34.5668 45.1336 34.8403 45.5074 35.1891L46.872 33.727ZM43.2293 32.5668C42.2061 32.5668 41.1975 32.7337 40.2073 33.0637L40.8397 34.9611C41.6321 34.697 42.4274 34.5668 43.2293 34.5668V32.5668ZM40.2213 33.0592C39.2538 33.3659 38.3986 33.8001 37.6739 34.3749L38.9166 35.9419C39.4228 35.5404 40.053 35.2107 40.8258 34.9656L40.2213 33.0592ZM39.1847 34.7014L37.4021 31.2317L35.6232 32.1456L37.4058 35.6154L39.1847 34.7014ZM37.0886 32.5061C37.9114 31.9264 38.926 31.4611 40.1513 31.1251L39.6224 29.1963C38.2163 29.5819 36.9814 30.1351 35.9367 30.8712L37.0886 32.5061ZM40.1513 31.1251C41.3813 30.7879 42.6293 30.6196 43.8977 30.6196V28.6196C42.4498 28.6196 41.0239 28.812 39.6224 29.1963L40.1513 31.1251ZM43.8977 30.6196C46.3594 30.6196 48.1247 31.1996 49.3288 32.2267L50.6267 30.705C48.9446 29.2703 46.6565 28.6196 43.8977 28.6196V30.6196ZM49.3288 32.2267C50.4741 33.2036 51.1423 34.7946 51.1423 37.2275H53.1423C53.1423 34.4399 52.3674 32.1898 50.6267 30.705L49.3288 32.2267ZM51.1423 37.2275V47H53.1423V37.2275H51.1423ZM52.1423 46H47.4948V48H52.1423V46ZM42.2743 46.2547C41.0455 46.2547 40.0513 46.0496 39.2593 45.68L38.4135 47.4924C39.5315 48.0141 40.8292 48.2547 42.2743 48.2547V46.2547ZM39.2756 45.6878C38.461 45.2895 37.8767 44.7772 37.4789 44.1639L35.801 45.2523C36.4218 46.2094 37.3019 46.9491 38.3972 47.4846L39.2756 45.6878ZM37.4789 44.1639C37.0794 43.5479 36.876 42.8578 36.876 42.066H34.876C34.876 43.2266 35.1819 44.2978 35.801 45.2523L37.4789 44.1639ZM36.876 42.066C36.876 41.2138 37.0778 40.5143 37.4508 39.9305L35.7654 38.8537C35.1623 39.7978 34.876 40.8809 34.876 42.066H36.876ZM37.4402 39.9468C37.8091 39.3934 38.418 38.9101 39.3607 38.5404L38.6305 36.6785C37.4085 37.1577 36.4258 37.8628 35.7761 38.8374L37.4402 39.9468ZM39.3763 38.5341C40.294 38.1563 41.562 37.941 43.2293 37.941V35.941C41.4162 35.941 39.8618 36.1713 38.6148 36.6848L39.3763 38.5341ZM43.2293 37.941H47.7813V35.941H43.2293V37.941ZM46.7813 36.941V39.8377H48.7813V36.941H46.7813ZM47.7813 38.8377H43.7704V40.8377H47.7813V38.8377ZM43.7704 38.8377C42.5656 38.8377 41.4368 39.0203 40.7004 39.6515L42.0019 41.17C42.1569 41.0372 42.6408 40.8377 43.7704 40.8377V38.8377ZM40.6822 39.6674C40.0462 40.2398 39.7145 40.9878 39.7145 41.8432H41.7145C41.7145 41.5525 41.8072 41.3456 42.0201 41.154L40.6822 39.6674ZM39.7145 41.8432C39.7145 42.7776 40.0925 43.5812 40.8303 44.1586L42.063 42.5836C41.8246 42.3971 41.7145 42.182 41.7145 41.8432H39.7145ZM40.8686 44.1871C41.6018 44.7064 42.5178 44.9123 43.5158 44.9123V42.9123C42.7735 42.9123 42.3102 42.7573 42.0247 42.5551L40.8686 44.1871ZM43.5158 44.9123C44.5038 44.9123 45.4225 44.6823 46.2462 44.2041L45.2419 42.4745C44.7498 42.7602 44.183 42.9123 43.5158 42.9123V44.9123ZM46.2666 44.1919C47.1229 43.6671 47.7374 42.9051 48.1085 41.951L46.2445 41.2261C46.0213 41.7998 45.6809 42.2051 45.2215 42.4867L46.2666 44.1919ZM46.2278 41.9047L46.9918 44.1967L48.8891 43.5642L48.1252 41.2723L46.2278 41.9047ZM46.9899 43.5697C46.7005 44.455 46.1915 45.0942 45.4523 45.5377L46.4813 47.2527C47.6521 46.5502 48.4588 45.5129 48.8909 44.1912L46.9899 43.5697ZM45.4523 45.5377C44.6983 45.9901 43.6615 46.2547 42.2743 46.2547V48.2547C43.9005 48.2547 45.3254 47.9462 46.4813 47.2527L45.4523 45.5377ZM55.8483 53.0163L56.1505 52.0631L55.8483 53.0163ZM53.7155 51.8703L52.826 51.4135C52.6172 51.8201 52.7106 52.3165 53.0529 52.6193L53.7155 51.8703ZM55.53 48.337L56.1943 47.5895C55.9632 47.3841 55.6501 47.2972 55.3461 47.354C55.0422 47.4108 54.7816 47.6051 54.6404 47.8802L55.53 48.337ZM56.8351 49.1328L56.4707 50.064C56.4751 50.0657 56.4795 50.0674 56.484 50.0691L56.8351 49.1328ZM59.9865 48.9099L59.3865 48.1099C59.3714 48.1212 59.3567 48.1329 59.3424 48.145L59.9865 48.9099ZM61.1325 47.2865L62.0463 47.6926C62.0486 47.6875 62.0508 47.6823 62.053 47.677L61.1325 47.2865ZM62.0238 45.1856L61.2068 44.6089C61.1657 44.6671 61.131 44.7295 61.1032 44.795L62.0238 45.1856ZM62.4057 44.6444L63.2227 45.2211C63.2651 45.161 63.3008 45.0964 63.3291 45.0285L62.4057 44.6444ZM68.5494 29.8742V28.8742C68.1455 28.8742 67.7812 29.1172 67.6261 29.4902L68.5494 29.8742ZM73.3242 29.8742L74.2444 30.2658C74.3758 29.9569 74.3435 29.6027 74.1584 29.3227C73.9732 29.0426 73.6599 28.8742 73.3242 28.8742V29.8742ZM65.589 48.0505L64.6688 47.6589C64.666 47.6656 64.6632 47.6723 64.6605 47.6791L65.589 48.0505ZM63.679 51.2974L62.9427 50.6207C62.9394 50.6244 62.936 50.6281 62.9327 50.6317L63.679 51.2974ZM61.3234 52.9526L60.9799 52.0135L60.9723 52.0163L61.3234 52.9526ZM61.4189 47.6685L60.5001 48.063C60.6316 48.3693 60.9071 48.5899 61.2347 48.6514C61.5623 48.7128 61.899 48.6069 62.1326 48.369L61.4189 47.6685ZM53.7792 29.8742V28.8742C53.4429 28.8742 53.1292 29.0432 52.9442 29.324C52.7592 29.6048 52.7276 29.9597 52.8603 30.2687L53.7792 29.8742ZM58.9042 29.8742L59.8284 29.4922C59.6738 29.1182 59.3089 28.8742 58.9042 28.8742V29.8742ZM64.825 44.1988L65.5386 44.8993C65.8194 44.6133 65.9023 44.1872 65.7492 43.8168L64.825 44.1988ZM58.4904 52.4301C57.7041 52.4301 56.9252 52.3087 56.1505 52.0631L55.546 53.9695C56.5115 54.2757 57.494 54.4301 58.4904 54.4301V52.4301ZM56.1505 52.0631C55.3826 51.8196 54.8035 51.4977 54.3781 51.1213L53.0529 52.6193C53.7311 53.2192 54.5738 53.6613 55.546 53.9695L56.1505 52.0631ZM54.6051 52.3271L56.4195 48.7938L54.6404 47.8802L52.826 51.4135L54.6051 52.3271ZM54.8656 49.0844C55.3382 49.5044 55.8754 49.8311 56.4707 50.064L57.1995 48.2015C56.8186 48.0525 56.4857 47.8486 56.1943 47.5895L54.8656 49.0844ZM56.484 50.0691C57.0928 50.2974 57.7103 50.4193 58.3312 50.4193V48.4193C57.976 48.4193 57.596 48.3501 57.1862 48.1964L56.484 50.0691ZM58.3312 50.4193C59.1891 50.4193 59.9952 50.2099 60.6306 49.6749L59.3424 48.145C59.1713 48.289 58.8739 48.4193 58.3312 48.4193V50.4193ZM60.5865 49.7099C61.2043 49.2466 61.6735 48.5312 62.0463 47.6926L60.2186 46.8804C59.9123 47.5697 59.6176 47.9366 59.3865 48.1099L60.5865 49.7099ZM62.053 47.677L62.9443 45.5761L61.1032 44.795L60.2119 46.8959L62.053 47.677ZM62.8407 45.7622L63.2227 45.2211L61.5888 44.0677L61.2068 44.6089L62.8407 45.7622ZM63.3291 45.0285L69.4727 30.2583L67.6261 29.4902L61.4824 44.2604L63.3291 45.0285ZM68.5494 30.8742H73.3242V28.8742H68.5494V30.8742ZM72.4041 29.4826L64.6688 47.6589L66.5091 48.4421L74.2444 30.2658L72.4041 29.4826ZM64.6605 47.6791C64.1374 48.9869 63.5569 49.9524 62.9427 50.6207L64.4154 51.974C65.2443 51.0719 65.9371 49.8728 66.5175 48.4219L64.6605 47.6791ZM62.9327 50.6317C62.327 51.3109 61.6753 51.7591 60.9799 52.0135L61.667 53.8918C62.7117 53.5096 63.6304 52.8543 64.4253 51.963L62.9327 50.6317ZM60.9723 52.0163C60.2509 52.2868 59.4277 52.4301 58.4904 52.4301V54.4301C59.6327 54.4301 60.6982 54.2551 61.6746 53.889L60.9723 52.0163ZM62.3378 47.274L54.6981 29.4797L52.8603 30.2687L60.5001 48.063L62.3378 47.274ZM53.7792 30.8742H58.9042V28.8742H53.7792V30.8742ZM57.98 30.2562L63.9008 44.5807L65.7492 43.8168L59.8284 29.4922L57.98 30.2562ZM64.1114 43.4982L60.7053 46.9679L62.1326 48.369L65.5386 44.8993L64.1114 43.4982ZM75.7007 47H74.7007C74.7007 47.5523 75.1484 48 75.7007 48V47ZM75.7007 24.7174V23.7174C75.1484 23.7174 74.7007 24.1651 74.7007 24.7174H75.7007ZM90.5027 25.7042L90.0879 26.6142L90.0991 26.6191L90.5027 25.7042ZM93.8451 28.4736L93.0064 29.0181L93.8451 28.4736ZM90.5027 39.9014L90.9064 40.8164L90.9176 40.8113L90.5027 39.9014ZM78.5656 40.8564L77.8537 40.1542C77.5705 40.4412 77.4875 40.8702 77.6431 41.2422C77.7987 41.6142 78.1624 41.8564 78.5656 41.8564V40.8564ZM80.8576 38.5326H81.8576C81.8576 38.1269 81.6124 37.7614 81.237 37.6074C80.8617 37.4534 80.4305 37.5415 80.1456 37.8304L80.8576 38.5326ZM80.8576 47V48C81.4098 48 81.8576 47.5523 81.8576 47H80.8576ZM80.8576 39.1056L80.1271 39.7886C80.4075 40.0885 80.8428 40.1865 81.2247 40.0358C81.6066 39.885 81.8576 39.5162 81.8576 39.1056H80.8576ZM78.5656 36.6545V35.6545C78.1673 35.6545 77.8069 35.8909 77.6483 36.2564C77.4897 36.6218 77.5631 37.0465 77.8352 37.3375L78.5656 36.6545ZM78.5656 28.9192L77.8352 28.2362C77.5631 28.5272 77.4897 28.9519 77.6483 29.3174C77.8069 29.6828 78.1673 29.9192 78.5656 29.9192V28.9192ZM80.8576 26.4682H81.8576C81.8576 26.0576 81.6066 25.6887 81.2247 25.538C80.8428 25.3872 80.4075 25.4853 80.1271 25.7852L80.8576 26.4682ZM76.7007 47V24.7174H74.7007V47H76.7007ZM75.7007 25.7174H85.3459V23.7174H75.7007V25.7174ZM85.3459 25.7174C87.2334 25.7174 88.8041 26.0288 90.0879 26.6141L90.9176 24.7943C89.3152 24.0638 87.4481 23.7174 85.3459 23.7174V25.7174ZM90.0991 26.6191C91.3815 27.1849 92.337 27.9868 93.0064 29.0181L94.6839 27.9291C93.7829 26.5411 92.5101 25.4968 90.9064 24.7893L90.0991 26.6191ZM93.0064 29.0181C93.6701 30.0406 94.0229 31.2874 94.0229 32.8028H96.0229C96.0229 30.9651 95.5905 29.3258 94.6839 27.9291L93.0064 29.0181ZM94.0229 32.8028C94.0229 34.2941 93.6714 35.5311 93.0064 36.5557L94.6839 37.6446C95.5892 36.2499 96.0229 34.622 96.0229 32.8028H94.0229ZM93.0064 36.5557C92.335 37.5899 91.3757 38.4044 90.0879 38.9915L90.9176 40.8113C92.5159 40.0826 93.7848 39.0297 94.6839 37.6446L93.0064 36.5557ZM90.0991 38.9865C88.8121 39.5543 87.2373 39.8564 85.3459 39.8564V41.8564C87.4442 41.8564 89.3072 41.5218 90.9064 40.8163L90.0991 38.9865ZM85.3459 39.8564H78.5656V41.8564H85.3459V39.8564ZM79.2776 41.5586L81.5695 39.2348L80.1456 37.8304L77.8537 40.1542L79.2776 41.5586ZM79.8576 38.5326V47H81.8576V38.5326H79.8576ZM80.8576 46H75.7007V48H80.8576V46ZM81.588 38.4226L79.296 35.9715L77.8352 37.3375L80.1271 39.7886L81.588 38.4226ZM78.5656 37.6545H85.0594V35.6545H78.5656V37.6545ZM85.0594 37.6545C86.7684 37.6545 88.2366 37.2936 89.2788 36.3922L87.9705 34.8795C87.4423 35.3363 86.5337 35.6545 85.0594 35.6545V37.6545ZM89.2788 36.3922C90.3208 35.491 90.8024 34.2497 90.8024 32.8028H88.8024C88.8024 33.7751 88.4989 34.4225 87.9705 34.8795L89.2788 36.3922ZM90.8024 32.8028C90.8024 31.3409 90.3248 30.0862 89.2788 29.1815L87.9705 30.6942C88.4948 31.1477 88.8024 31.803 88.8024 32.8028H90.8024ZM89.2788 29.1815C88.2366 28.2802 86.7684 27.9192 85.0594 27.9192V29.9192C86.5337 29.9192 87.4423 30.2374 87.9705 30.6942L89.2788 29.1815ZM85.0594 27.9192H78.5656V29.9192H85.0594V27.9192ZM79.2961 29.6022L81.588 27.1511L80.1271 25.7852L77.8352 28.2362L79.2961 29.6022ZM79.8576 26.4682V39.1056H81.8576V26.4682H79.8576ZM108.704 47H107.704C107.704 47.5523 108.151 48 108.704 48V47ZM108.704 43.6576H109.704C109.704 43.5204 109.675 43.3847 109.621 43.2589L108.704 43.6576ZM108.385 42.9255H107.385C107.385 43.0627 107.414 43.1984 107.468 43.3242L108.385 42.9255ZM107.398 34.4581L106.716 35.1891C106.72 35.1928 106.724 35.1965 106.728 35.2002L107.398 34.4581ZM101.732 34.0124L102.035 34.9656C102.039 34.9642 102.044 34.9626 102.049 34.9611L101.732 34.0124ZM99.5041 35.1584L98.6146 35.6154C98.7514 35.8816 99.0003 36.0726 99.2928 36.1358C99.5854 36.199 99.8909 36.1279 100.125 35.9419L99.5041 35.1584ZM97.7215 31.6887L97.1455 30.8712C96.7378 31.1584 96.6041 31.7021 96.832 32.1456L97.7215 31.6887ZM101.096 30.1607L100.831 29.1963L101.096 30.1607ZM111.187 31.4658L111.835 30.705L111.187 31.4658ZM113.351 47V48C113.903 48 114.351 47.5523 114.351 47H113.351ZM100.045 46.5862L99.606 47.4846C99.6114 47.4872 99.6169 47.4898 99.6223 47.4924L100.045 46.5862ZM97.8488 44.7081L98.6878 44.1639L97.8488 44.7081ZM97.817 39.3921L96.9849 38.8374C96.9813 38.8428 96.9778 38.8482 96.9743 38.8537L97.817 39.3921ZM100.204 37.6095L100.569 38.5404C100.575 38.5384 100.58 38.5363 100.585 38.5341L100.204 37.6095ZM108.99 36.941H109.99C109.99 36.3887 109.542 35.941 108.99 35.941V36.941ZM108.99 39.8377V40.8377C109.542 40.8377 109.99 40.39 109.99 39.8377H108.99ZM102.56 40.4107L101.909 39.6515C101.903 39.6567 101.897 39.662 101.891 39.6674L102.56 40.4107ZM102.655 43.3711L102.039 44.1586C102.052 44.1684 102.064 44.1779 102.077 44.1871L102.655 43.3711ZM106.953 43.3393L107.455 44.2041C107.462 44.2001 107.469 44.196 107.475 44.1919L106.953 43.3393ZM108.385 41.5885L109.334 41.2723C109.201 40.8725 108.831 40.5992 108.41 40.5888C107.989 40.5785 107.606 40.8333 107.453 41.2261L108.385 41.5885ZM109.149 43.8804L110.1 44.1912C110.166 43.9874 110.166 43.7676 110.098 43.5642L109.149 43.8804ZM107.176 46.3952L106.661 45.5377L107.176 46.3952ZM109.704 47V43.6576H107.704V47H109.704ZM109.621 43.2589L109.302 42.5267L107.468 43.3242L107.787 44.0563L109.621 43.2589ZM109.385 42.9255V36.941H107.385V42.9255H109.385ZM109.385 36.941C109.385 35.6577 108.978 34.5369 108.069 33.716L106.728 35.2002C107.135 35.5676 107.385 36.1021 107.385 36.941H109.385ZM108.081 33.727C107.181 32.8874 105.897 32.5668 104.438 32.5668V34.5668C105.653 34.5668 106.342 34.8403 106.716 35.1891L108.081 33.727ZM104.438 32.5668C103.415 32.5668 102.406 32.7337 101.416 33.0637L102.049 34.9611C102.841 34.697 103.636 34.5668 104.438 34.5668V32.5668ZM101.43 33.0592C100.463 33.3659 99.6074 33.8001 98.8827 34.3749L100.125 35.9419C100.632 35.5404 101.262 35.2107 102.035 34.9656L101.43 33.0592ZM100.394 34.7014L98.6109 31.2317L96.832 32.1456L98.6146 35.6154L100.394 34.7014ZM98.2974 32.5061C99.1202 31.9264 100.135 31.4611 101.36 31.1251L100.831 29.1963C99.4251 29.5819 98.1902 30.1351 97.1455 30.8712L98.2974 32.5061ZM101.36 31.1251C102.59 30.7879 103.838 30.6196 105.107 30.6196V28.6196C103.659 28.6196 102.233 28.812 100.831 29.1963L101.36 31.1251ZM105.107 30.6196C107.568 30.6196 109.334 31.1996 110.538 32.2267L111.835 30.705C110.153 29.2703 107.865 28.6196 105.107 28.6196V30.6196ZM110.538 32.2267C111.683 33.2036 112.351 34.7946 112.351 37.2275H114.351C114.351 34.4399 113.576 32.1898 111.835 30.705L110.538 32.2267ZM112.351 37.2275V47H114.351V37.2275H112.351ZM113.351 46H108.704V48H113.351V46ZM103.483 46.2547C102.254 46.2547 101.26 46.0496 100.468 45.68L99.6223 47.4924C100.74 48.0141 102.038 48.2547 103.483 48.2547V46.2547ZM100.484 45.6878C99.6698 45.2895 99.0856 44.7772 98.6878 44.1639L97.0098 45.2523C97.6307 46.2094 98.5107 46.9491 99.606 47.4846L100.484 45.6878ZM98.6878 44.1639C98.2882 43.5479 98.0848 42.8578 98.0848 42.066H96.0848C96.0848 43.2266 96.3907 44.2978 97.0098 45.2523L98.6878 44.1639ZM98.0848 42.066C98.0848 41.2138 98.2866 40.5143 98.6597 39.9305L96.9743 38.8537C96.3711 39.7978 96.0848 40.8809 96.0848 42.066H98.0848ZM98.649 39.9468C99.0179 39.3934 99.6268 38.9101 100.569 38.5404L99.8393 36.6785C98.6173 37.1577 97.6346 37.8628 96.9849 38.8374L98.649 39.9468ZM100.585 38.5341C101.503 38.1563 102.771 37.941 104.438 37.941V35.941C102.625 35.941 101.071 36.1713 99.8236 36.6848L100.585 38.5341ZM104.438 37.941H108.99V35.941H104.438V37.941ZM107.99 36.941V39.8377H109.99V36.941H107.99ZM108.99 38.8377H104.979V40.8377H108.99V38.8377ZM104.979 38.8377C103.774 38.8377 102.646 39.0203 101.909 39.6515L103.211 41.17C103.366 41.0372 103.85 40.8377 104.979 40.8377V38.8377ZM101.891 39.6674C101.255 40.2398 100.923 40.9878 100.923 41.8432H102.923C102.923 41.5525 103.016 41.3456 103.229 41.154L101.891 39.6674ZM100.923 41.8432C100.923 42.7776 101.301 43.5812 102.039 44.1586L103.272 42.5836C103.033 42.3971 102.923 42.182 102.923 41.8432H100.923ZM102.077 44.1871C102.811 44.7064 103.727 44.9123 104.725 44.9123V42.9123C103.982 42.9123 103.519 42.7573 103.233 42.5551L102.077 44.1871ZM104.725 44.9123C105.713 44.9123 106.631 44.6823 107.455 44.2041L106.451 42.4745C105.959 42.7602 105.392 42.9123 104.725 42.9123V44.9123ZM107.475 44.1919C108.332 43.6671 108.946 42.9051 109.317 41.951L107.453 41.2261C107.23 41.7998 106.89 42.2051 106.43 42.4867L107.475 44.1919ZM107.437 41.9047L108.201 44.1967L110.098 43.5642L109.334 41.2723L107.437 41.9047ZM108.199 43.5697C107.909 44.455 107.4 45.0942 106.661 45.5377L107.69 47.2527C108.861 46.5502 109.668 45.5129 110.1 44.1912L108.199 43.5697ZM106.661 45.5377C105.907 45.9901 104.87 46.2547 103.483 46.2547V48.2547C105.109 48.2547 106.534 47.9462 107.69 47.2527L106.661 45.5377ZM120.137 45.7267L119.458 46.461L119.466 46.4679L120.137 45.7267ZM118.45 26.0862V25.0862C117.898 25.0862 117.45 25.5339 117.45 26.0862H118.45ZM123.416 26.0862H124.416C124.416 25.5339 123.968 25.0862 123.416 25.0862V26.0862ZM123.989 42.7345L123.263 43.4222C123.269 43.4288 123.276 43.4352 123.282 43.4416L123.989 42.7345ZM127.554 42.6708L128.489 42.3141C128.376 42.0189 128.13 41.7943 127.826 41.7084C127.522 41.6226 127.195 41.6855 126.945 41.8782L127.554 42.6708ZM128.891 46.1724L129.469 46.9884C129.842 46.7246 129.988 46.242 129.825 45.8157L128.891 46.1724ZM127.045 47L127.281 47.9718C127.287 47.9702 127.294 47.9685 127.301 47.9667L127.045 47ZM115.808 34.0761H114.808C114.808 34.6284 115.256 35.0761 115.808 35.0761V34.0761ZM115.808 30.2562V29.2562C115.256 29.2562 114.808 29.7039 114.808 30.2562H115.808ZM127.682 30.2562H128.682C128.682 29.7039 128.234 29.2562 127.682 29.2562V30.2562ZM127.682 34.0761V35.0761C128.234 35.0761 128.682 34.6284 128.682 34.0761H127.682ZM124.849 46.2547C122.998 46.2547 121.696 45.7891 120.809 44.9855L119.466 46.4679C120.828 47.7015 122.667 48.2547 124.849 48.2547V46.2547ZM120.816 44.9924C119.958 44.1986 119.45 42.9658 119.45 41.111H117.45C117.45 43.3308 118.068 45.1751 119.459 46.461L120.816 44.9924ZM119.45 41.111V26.0862H117.45V41.111H119.45ZM118.45 27.0862H123.416V25.0862H118.45V27.0862ZM122.416 26.0862V41.0474H124.416V26.0862H122.416ZM122.416 41.0474C122.416 41.9456 122.657 42.7828 123.263 43.4222L124.715 42.0467C124.557 41.8797 124.416 41.5921 124.416 41.0474H122.416ZM123.282 43.4416C123.891 44.0505 124.687 44.3075 125.549 44.3075V42.3075C125.095 42.3075 124.851 42.1824 124.696 42.0274L123.282 43.4416ZM125.549 44.3075C126.525 44.3075 127.415 44.0394 128.164 43.4634L126.945 41.8782C126.59 42.1511 126.143 42.3075 125.549 42.3075V44.3075ZM126.62 43.0275L127.957 46.5291L129.825 45.8157L128.489 42.3141L126.62 43.0275ZM128.313 45.3563C127.918 45.636 127.417 45.867 126.789 46.0333L127.301 47.9667C128.116 47.751 128.845 47.4303 129.469 46.9884L128.313 45.3563ZM126.809 46.0282C126.191 46.1781 125.538 46.2547 124.849 46.2547V48.2547C125.687 48.2547 126.499 48.1614 127.281 47.9718L126.809 46.0282ZM116.808 34.0761V30.2562H114.808V34.0761H116.808ZM115.808 31.2562H127.682V29.2562H115.808V31.2562ZM126.682 30.2562V34.0761H128.682V30.2562H126.682ZM127.682 33.0761H115.808V35.0761H127.682V33.0761ZM145.717 30.4472L145.256 31.3344C145.263 31.3381 145.27 31.3416 145.277 31.3451L145.717 30.4472ZM148.263 32.9301L147.386 33.4101L147.39 33.4172L148.263 32.9301ZM149.187 47V48C149.739 48 150.187 47.5523 150.187 47H149.187ZM144.221 47H143.221C143.221 47.5523 143.668 48 144.221 48V47ZM143.298 34.9037L142.556 35.574C142.559 35.5783 142.563 35.5826 142.567 35.5869L143.298 34.9037ZM138.618 34.4262L139.078 35.3145L139.089 35.3086L138.618 34.4262ZM137.154 35.9224L136.271 35.4532C136.267 35.4605 136.263 35.4678 136.26 35.4751L137.154 35.9224ZM136.645 47V48C137.197 48 137.645 47.5523 137.645 47H136.645ZM131.679 47H130.679C130.679 47.5523 131.127 48 131.679 48V47ZM131.679 23.3804V22.3804C131.127 22.3804 130.679 22.8281 130.679 23.3804H131.679ZM136.645 23.3804H137.645C137.645 22.8281 137.197 22.3804 136.645 22.3804V23.3804ZM136.645 34.6172L135.855 35.2312C136.118 35.5684 136.565 35.7017 136.969 35.5631C137.373 35.4245 137.645 35.0444 137.645 34.6172H136.645ZM135.531 33.1848L134.65 32.7116C134.462 33.0602 134.498 33.4864 134.741 33.7987L135.531 33.1848ZM138.173 30.5427L138.646 31.4237L138.173 30.5427ZM142.088 30.6196C143.308 30.6196 144.355 30.8663 145.256 31.3344L146.178 29.56C144.956 28.9246 143.585 28.6196 142.088 28.6196V30.6196ZM145.277 31.3451C146.162 31.7789 146.863 32.4543 147.386 33.4101L149.141 32.4501C148.433 31.1565 147.437 30.1766 146.157 29.5493L145.277 31.3451ZM147.39 33.4172C147.897 34.3261 148.187 35.5647 148.187 37.1956H150.187C150.187 35.3463 149.861 33.7411 149.137 32.443L147.39 33.4172ZM148.187 37.1956V47H150.187V37.1956H148.187ZM149.187 46H144.221V48H149.187V46ZM145.221 47V37.9596H143.221V47H145.221ZM145.221 37.9596C145.221 36.4573 144.889 35.1411 144.028 34.2206L142.567 35.5869C142.937 35.9821 143.221 36.7031 143.221 37.9596H145.221ZM144.04 34.2334C143.211 33.3161 142.063 32.9169 140.751 32.9169V34.9169C141.646 34.9169 142.196 35.1756 142.556 35.574L144.04 34.2334ZM140.751 32.9169C139.817 32.9169 138.942 33.1204 138.148 33.5439L139.089 35.3086C139.568 35.053 140.115 34.9169 140.751 34.9169V32.9169ZM138.159 33.538C137.343 33.9599 136.716 34.6152 136.271 35.4532L138.037 36.3915C138.313 35.8714 138.662 35.5292 139.078 35.3145L138.159 33.538ZM136.26 35.4751C135.829 36.337 135.645 37.3743 135.645 38.5326H137.645C137.645 37.5687 137.8 36.8658 138.048 36.3696L136.26 35.4751ZM135.645 38.5326V47H137.645V38.5326H135.645ZM136.645 46H131.679V48H136.645V46ZM132.679 47V23.3804H130.679V47H132.679ZM131.679 24.3804H136.645V22.3804H131.679V24.3804ZM135.645 23.3804V34.6172H137.645V23.3804H135.645ZM137.434 34.0033L136.32 32.5708L134.741 33.7987L135.855 35.2312L137.434 34.0033ZM136.412 33.6579C136.934 32.685 137.673 31.9462 138.646 31.4237L137.7 29.6617C136.38 30.3701 135.358 31.3926 134.65 32.7116L136.412 33.6579ZM138.646 31.4237C139.629 30.8958 140.768 30.6196 142.088 30.6196V28.6196C140.48 28.6196 139.008 28.9588 137.7 29.6617L138.646 31.4237Z" fill="#0B404C" mask="url(#path-3-outside-1_433_413)"/>
</g>
<path d="M25.4146 47.2547C23.9715 47.2547 22.7089 46.9363 21.6266 46.2997C20.5443 45.663 19.6954 44.6975 19.08 43.4029C18.4858 42.0872 18.1887 40.4319 18.1887 38.4371C18.1887 36.4211 18.4752 34.7658 19.0481 33.4713C19.6211 32.1768 20.4488 31.2112 21.5311 30.5745C22.6134 29.9379 23.9079 29.6196 25.4146 29.6196C27.0274 29.6196 28.4705 29.9909 29.7438 30.7337C31.0383 31.4552 32.0569 32.4739 32.7997 33.7896C33.5637 35.1053 33.9457 36.6545 33.9457 38.4371C33.9457 40.2409 33.5637 41.8007 32.7997 43.1165C32.0569 44.4322 31.0383 45.4508 29.7438 46.1724C28.4705 46.8939 27.0274 47.2547 25.4146 47.2547ZM15.2919 53.1755V29.8742H20.0349V33.3758L19.9394 38.4689L20.2578 43.5303V53.1755H15.2919ZM24.5551 43.1801C25.3828 43.1801 26.1149 42.9891 26.7516 42.6071C27.4094 42.2252 27.9294 41.684 28.3113 40.9837C28.7146 40.2622 28.9162 39.4133 28.9162 38.4371C28.9162 37.4397 28.7146 36.5908 28.3113 35.8905C27.9294 35.1902 27.4094 34.6491 26.7516 34.2671C26.1149 33.8851 25.3828 33.6941 24.5551 33.6941C23.7275 33.6941 22.9847 33.8851 22.3269 34.2671C21.669 34.6491 21.1491 35.1902 20.7671 35.8905C20.3851 36.5908 20.1941 37.4397 20.1941 38.4371C20.1941 39.4133 20.3851 40.2622 20.7671 40.9837C21.1491 41.684 21.669 42.2252 22.3269 42.6071C22.9847 42.9891 23.7275 43.1801 24.5551 43.1801ZM47.4948 47V43.6576L47.1765 42.9255V36.941C47.1765 35.8799 46.8475 35.0523 46.1897 34.4581C45.553 33.8639 44.5662 33.5668 43.2293 33.5668C42.3167 33.5668 41.4148 33.7153 40.5235 34.0124C39.6534 34.2883 38.9107 34.6703 38.2953 35.1584L36.5126 31.6887C37.4464 31.0308 38.5711 30.5215 39.8869 30.1607C41.2026 29.7999 42.5396 29.6196 43.8977 29.6196C46.508 29.6196 48.5346 30.235 49.9777 31.4658C51.4208 32.6967 52.1423 34.6172 52.1423 37.2275V47H47.4948ZM42.2743 47.2547C40.9373 47.2547 39.7914 47.0318 38.8364 46.5862C37.8814 46.1193 37.1493 45.4933 36.64 44.7081C36.1307 43.9229 35.876 43.0422 35.876 42.066C35.876 41.0474 36.12 40.1561 36.6081 39.3921C37.1175 38.6281 37.9133 38.0339 38.9956 37.6095C40.0779 37.1638 41.4891 36.941 43.2293 36.941H47.7813V39.8377H43.7704C42.6032 39.8377 41.7968 40.0287 41.3512 40.4107C40.9267 40.7927 40.7145 41.2702 40.7145 41.8432C40.7145 42.4798 40.9586 42.9891 41.4467 43.3711C41.956 43.7319 42.6457 43.9123 43.5158 43.9123C44.3434 43.9123 45.0861 43.7213 45.744 43.3393C46.4019 42.9361 46.8794 42.3525 47.1765 41.5885L47.9404 43.8804C47.5797 44.984 46.9218 45.8222 45.9668 46.3952C45.0119 46.9682 43.781 47.2547 42.2743 47.2547ZM58.4904 53.4301C57.5991 53.4301 56.7184 53.2922 55.8483 53.0163C54.9782 52.7404 54.2673 52.3584 53.7155 51.8703L55.53 48.337C55.912 48.6765 56.347 48.9418 56.8351 49.1328C57.3444 49.3238 57.8431 49.4193 58.3312 49.4193C59.0315 49.4193 59.5833 49.2495 59.9865 48.9099C60.4109 48.5916 60.7929 48.0505 61.1325 47.2865L62.0238 45.1856L62.4057 44.6444L68.5494 29.8742H73.3242L65.589 48.0505C65.0372 49.4299 64.4006 50.5122 63.679 51.2974C62.9787 52.0826 62.1935 52.6343 61.3234 52.9526C60.4746 53.271 59.5302 53.4301 58.4904 53.4301ZM61.4189 47.6685L53.7792 29.8742H58.9042L64.825 44.1988L61.4189 47.6685ZM75.7007 47V24.7174H85.3459C87.3407 24.7174 89.0597 25.0463 90.5027 25.7042C91.9458 26.3408 93.0599 27.264 93.8451 28.4736C94.6303 29.6832 95.0229 31.1263 95.0229 32.8028C95.0229 34.4581 94.6303 35.8905 93.8451 37.1001C93.0599 38.3098 91.9458 39.2435 90.5027 39.9014C89.0597 40.538 87.3407 40.8564 85.3459 40.8564H78.5656L80.8575 38.5326V47H75.7007ZM80.8575 39.1056L78.5656 36.6545H85.0594C86.651 36.6545 87.8394 36.315 88.6246 35.6359C89.4098 34.9568 89.8024 34.0124 89.8024 32.8028C89.8024 31.5719 89.4098 30.617 88.6246 29.9379C87.8394 29.2588 86.651 28.9192 85.0594 28.9192H78.5656L80.8575 26.4682V39.1056ZM108.704 47V43.6576L108.385 42.9255V36.941C108.385 35.8799 108.056 35.0523 107.398 34.4581C106.762 33.8639 105.775 33.5668 104.438 33.5668C103.526 33.5668 102.624 33.7153 101.732 34.0124C100.862 34.2883 100.119 34.6703 99.5041 35.1584L97.7215 31.6887C98.6552 31.0308 99.78 30.5215 101.096 30.1607C102.411 29.7999 103.748 29.6196 105.107 29.6196C107.717 29.6196 109.743 30.235 111.187 31.4658C112.63 32.6967 113.351 34.6172 113.351 37.2275V47H108.704ZM103.483 47.2547C102.146 47.2547 101 47.0318 100.045 46.5862C99.0903 46.1193 98.3581 45.4933 97.8488 44.7081C97.3395 43.9229 97.0848 43.0422 97.0848 42.066C97.0848 41.0474 97.3289 40.1561 97.817 39.3921C98.3263 38.6281 99.1221 38.0339 100.204 37.6095C101.287 37.1638 102.698 36.941 104.438 36.941H108.99V39.8377H104.979C103.812 39.8377 103.006 40.0287 102.56 40.4107C102.136 40.7927 101.923 41.2702 101.923 41.8432C101.923 42.4798 102.167 42.9891 102.655 43.3711C103.165 43.7319 103.854 43.9123 104.725 43.9123C105.552 43.9123 106.295 43.7213 106.953 43.3393C107.611 42.9361 108.088 42.3525 108.385 41.5885L109.149 43.8804C108.788 44.984 108.131 45.8222 107.176 46.3952C106.221 46.9682 104.99 47.2547 103.483 47.2547ZM124.849 47.2547C122.833 47.2547 121.262 46.7453 120.137 45.7267C119.013 44.6869 118.45 43.1483 118.45 41.111V26.0862H123.416V41.0474C123.416 41.7689 123.607 42.3313 123.989 42.7345C124.371 43.1165 124.891 43.3075 125.549 43.3075C126.334 43.3075 127.003 43.0952 127.554 42.6708L128.891 46.1724C128.382 46.5331 127.767 46.809 127.045 47C126.345 47.1698 125.613 47.2547 124.849 47.2547ZM115.808 34.0761V30.2562H127.682V34.0761H115.808ZM142.088 29.6196C143.446 29.6196 144.656 29.8954 145.717 30.4472C146.799 30.9777 147.648 31.8054 148.263 32.9301C148.879 34.0336 149.187 35.4555 149.187 37.1956V47H144.221V37.9596C144.221 36.5802 143.913 35.5616 143.298 34.9037C142.703 34.2459 141.855 33.9169 140.751 33.9169C139.966 33.9169 139.255 34.0867 138.618 34.4262C138.003 34.7446 137.515 35.2433 137.154 35.9224C136.814 36.6014 136.645 37.4715 136.645 38.5326V47H131.679V23.3804H136.645V34.6172L135.531 33.1848C136.146 32.0388 137.027 31.1581 138.173 30.5427C139.319 29.9273 140.624 29.6196 142.088 29.6196Z" fill="white"/>
<defs>
<radialGradient id="paint0_radial_433_413" cx="0" cy="0" r="1" gradientUnits="userSpaceOnUse" gradientTransform="translate(36 -5.00488e-06) rotate(27.3777) scale(63.0635 68.2487)">
<stop stop-color="#FDED5C"/>
<stop offset="0.64159" stop-color="#8ED3FF"/>
<stop offset="1" stop-color="#0088FF"/>
</radialGradient>
<radialGradient id="paint1_radial_433_413" cx="0" cy="0" r="1" gradientUnits="userSpaceOnUse" gradientTransform="translate(36 -5.00488e-06) rotate(27.3777) scale(63.0635 68.2487)">
<stop stop-color="#FDED5C"/>
<stop offset="0.64159" stop-color="#8ED3FF"/>
<stop offset="1" stop-color="#0088FF"/>
</radialGradient>
</defs>
</svg>
